<?xml version="1.0" encoding="UTF-8"?> <svg xmlns="http://www.w3.org/2000/svg" version="1.1" id="Layer_1" x="0" y="0" viewBox="0 0 175.752 200" xml:space="preserve"><style>.st0{fill:#686963}</style><path class="st0" d="M1.585 146.193a74.287 74.287 0 003.27 14.299c1.592 4.74 3.64 9.225 6.086 13.332 2.584 4.337 5.6 8.225 8.963 11.555a43.864 43.864 0 0012.086 8.468c4.272 2.028 9.041 3.465 14.174 4.273 4.604.724 9.602.958 14.857.695a107.507 107.507 0 005.389-.408c.885-.09 1.788-.194 2.685-.309 8.453-1.086 16.947-3.303 25.247-6.591 7.908-3.132 15.677-7.249 23.089-12.234 7.135-4.799 13.927-10.393 20.188-16.626 5.168-5.145 9.938-10.511 14.179-15.95 4.551-5.837 8.527-11.806 11.818-17.742 3.609-6.507 6.45-13.076 8.446-19.525 1.099-3.55 1.862-7.12 2.267-10.611.434-3.734.457-7.373.068-10.819-.418-3.707-1.316-7.219-2.67-10.438-2.278-5.417-5.652-10.043-10.316-14.14-4.725-4.151-10.157-7.231-14.846-9.697-2.101-1.105-4.276-2.194-6.379-3.247-3.157-1.582-6.421-3.216-9.547-4.957-2.81-1.565-5.523-3.527-8.292-5.997-2.287-2.04-4.612-4.432-7.108-7.313-2.285-2.638-4.42-5.341-6.418-7.891-1.736-2.216-3.531-4.507-5.371-6.695-2.071-2.464-3.968-4.52-5.8-6.285-2.208-2.127-4.365-3.883-6.595-5.37C85.69 2.395 79.292.725 72.552 1.143c-6.483.402-12.886 2.771-18.031 6.67-5.371 4.071-9.095 9.528-10.768 15.78-.64 2.39-1.027 4.954-1.219 8.07-.159 2.581-.161 5.238-.163 7.808v.44c-.003 2.969-.022 5.643-.224 8.318a50.38 50.38 0 01-4.069 16.496c-2.007 4.635-4.773 9.266-8.704 14.575-2.507 3.386-5.185 6.656-8.019 10.119a828.196 828.196 0 00-2.531 3.101c-4.267 5.256-7.818 10.703-10.554 16.189-2.974 5.962-5.052 12.102-6.174 18.25a62.551 62.551 0 00-1.015 11.236 63.583 63.583 0 00.504 7.998zm173.816-47.25c-.413 3.557-1.19 7.192-2.308 10.805-2.018 6.52-4.889 13.158-8.533 19.73-3.318 5.984-7.326 12-11.911 17.881-4.268 5.475-9.069 10.875-14.268 16.052-6.31 6.281-13.155 11.919-20.347 16.757-7.476 5.029-15.314 9.181-23.294 12.342-8.384 3.321-16.966 5.561-25.507 6.658a105.942 105.942 0 01-8.158.724c-5.329.267-10.401.029-15.078-.707-5.235-.824-10.104-2.292-14.469-4.364a44.92 44.92 0 01-12.382-8.676c-3.428-3.395-6.5-7.355-9.13-11.77-2.486-4.173-4.566-8.729-6.182-13.541a75.36 75.36 0 01-3.318-14.508 64.121 64.121 0 01.518-19.564c1.141-6.249 3.25-12.486 6.27-18.539 2.772-5.556 6.366-11.07 10.682-16.388.849-1.046 1.695-2.079 2.534-3.105 2.826-3.452 5.495-6.713 7.987-10.077 3.881-5.242 6.608-9.805 8.581-14.362a49.31 49.31 0 003.984-16.148c.199-2.638.217-5.291.22-8.238l.001-.439c.002-2.586.004-5.26.165-7.873.197-3.189.595-5.821 1.254-8.282 1.736-6.486 5.595-12.144 11.159-16.361C59.183 2.924 65.794.478 72.487.062c6.978-.433 13.606 1.299 19.169 5.007 2.284 1.523 4.491 3.319 6.745 5.491 1.86 1.791 3.782 3.874 5.878 6.367 1.852 2.203 3.653 4.502 5.4 6.732 1.983 2.531 4.108 5.222 6.378 7.841 2.465 2.846 4.758 5.205 7.01 7.214 2.71 2.417 5.359 4.333 8.099 5.859 3.105 1.729 6.359 3.359 9.505 4.935 2.107 1.056 4.287 2.147 6.397 3.257 4.746 2.495 10.246 5.616 15.057 9.842 4.79 4.208 8.257 8.961 10.599 14.533 1.394 3.314 2.318 6.926 2.748 10.736.188 1.667.282 3.378.282 5.122a51.91 51.91 0 01-.353 5.945z"></path><path class="st0" d="M90.91 11.038c-4.599-3.02-9.998-4.551-15.71-4.464-.571.008-1.144.032-1.721.073-4.091.287-8.145 1.403-11.832 3.22a30.617 30.617 0 00-5.132 3.183c-5.058 3.873-8.57 9.035-10.16 14.94-.089.33-.173.663-.252 1-.463 1.979-.76 4.114-.924 6.626-.16 2.438-.172 4.948-.185 7.375l-.002.415c-.015 2.803-.045 5.329-.247 7.855a47.805 47.805 0 01-3.901 15.571 57.058 57.058 0 01-3.133 6.111c-1.43 2.433-3.119 4.95-5.125 7.651-1.725 2.322-3.533 4.586-5.421 6.904-.706.869-1.446 1.767-2.175 2.656l-.105.128a838.24 838.24 0 00-2.29 2.8c-4.035 4.961-7.403 10.106-10.006 15.288-2.628 5.224-4.526 10.589-5.655 15.969a59.302 59.302 0 00-1.263 11.928 60.362 60.362 0 00.445 7.575 69.752 69.752 0 003.041 13.554 66.192 66.192 0 002.948 7.384 61.809 61.809 0 002.791 5.257c2.446 4.108 5.308 7.787 8.507 10.936a41.516 41.516 0 0011.436 7.981c4.04 1.91 8.549 3.263 13.402 4.022a64.17 64.17 0 008.618.733c1.771.036 3.581.007 5.425-.086a100.403 100.403 0 005.091-.388 95.73 95.73 0 002.536-.293c7.988-1.03 16.018-3.128 23.869-6.236 7.506-2.971 14.887-6.877 21.929-11.606 6.783-4.554 13.239-9.864 19.189-15.781 4.904-4.877 9.431-9.966 13.456-15.127a140.23 140.23 0 004.503-6.102 124.677 124.677 0 006.713-10.727c3.429-6.178 6.126-12.408 8.018-18.52 1.043-3.369 1.765-6.754 2.148-10.063.409-3.537.429-6.984.057-10.247a36.898 36.898 0 00-1.371-6.652 33.508 33.508 0 00-1.17-3.227c-1.905-4.517-4.618-8.457-8.267-11.994a42.918 42.918 0 00-1.507-1.391c-4.465-3.928-9.599-6.855-14.04-9.208a360.809 360.809 0 00-6.021-3.085c-2.667-1.346-5.415-2.734-8.079-4.198a118.17 118.17 0 01-.932-.517c-.89-.499-1.77-1.04-2.645-1.627-1.733-1.163-3.448-2.506-5.187-4.059-2.164-1.934-4.365-4.196-6.726-6.915a122.471 122.471 0 01-1.549-1.819c-1.59-1.901-3.101-3.806-4.538-5.626-1.65-2.088-3.356-4.243-5.104-6.299-.43-.506-.853-.994-1.269-1.464a68.45 68.45 0 00-4.239-4.422c-2.088-1.984-4.13-3.617-6.239-4.992zm.513-.889c2.16 1.41 4.254 3.072 6.392 5.097 1.77 1.667 3.599 3.613 5.593 5.951.291.34.58.683.868 1.028a269.038 269.038 0 014.278 5.298c1.888 2.383 3.91 4.92 6.066 7.395a99.275 99.275 0 001.518 1.704c1.774 1.946 3.465 3.634 5.131 5.122 2.564 2.289 5.07 4.11 7.661 5.565l.428.239c1.048.582 2.111 1.153 3.181 1.715 1.793.942 3.601 1.857 5.374 2.753 1.992 1.007 4.051 2.047 6.046 3.103 4.499 2.385 9.702 5.355 14.252 9.359 4.541 3.998 7.826 8.502 10.047 13.773.178.422.348.849.51 1.281 1.041 2.781 1.747 5.764 2.102 8.886.179 1.58.269 3.201.27 4.853a48.119 48.119 0 01-.329 5.631c-.39 3.375-1.126 6.825-2.188 10.256-1.913 6.183-4.639 12.482-8.103 18.725a126.206 126.206 0 01-7.014 11.17 142.604 142.604 0 01-4.294 5.801c-4.054 5.198-8.612 10.323-13.549 15.233-5.997 5.964-12.505 11.316-19.343 15.908l-.485.324c-6.961 4.628-14.246 8.46-21.653 11.392-7.934 3.141-16.051 5.262-24.126 6.303a102.587 102.587 0 01-5.14.527c-.858.065-1.725.121-2.578.163a78.293 78.293 0 01-4.385.101c-3.447-.018-6.755-.272-9.876-.76-4.952-.774-9.558-2.157-13.689-4.111a42.569 42.569 0 01-11.725-8.181c-3.267-3.213-6.188-6.964-8.683-11.151a63.45 63.45 0 01-3.548-6.894 67.557 67.557 0 01-2.295-5.963 70.753 70.753 0 01-3.18-14.54 60.713 60.713 0 011.228-20.449c1.173-5.018 3.001-10.011 5.454-14.882 2.636-5.25 6.046-10.457 10.128-15.477.803-.987 1.603-1.962 2.396-2.93.834-1.019 1.678-2.043 2.483-3.035 1.767-2.175 3.463-4.306 5.08-6.483 2.106-2.836 3.856-5.463 5.321-8.001a55.661 55.661 0 002.821-5.56 46.834 46.834 0 003.817-15.24c.199-2.49.228-4.996.242-7.777l.002-.415c.013-2.442.025-4.967.186-7.436.149-2.294.408-4.285.8-6.134.122-.576.257-1.138.406-1.691 1.649-6.125 5.288-11.477 10.528-15.49a32.284 32.284 0 013.726-2.454c4.21-2.368 8.976-3.818 13.79-4.157 6.568-.466 12.803 1.124 18.058 4.555z"></path><path class="st0" d="M90.766 16.106c-4.332-2.773-9.388-4.176-14.746-4.038a29.28 29.28 0 00-1.613.083c-3.835.304-7.633 1.382-11.086 3.111a29.235 29.235 0 00-4.812 3.026c-4.745 3.674-8.045 8.543-9.551 14.099-.084.311-.164.624-.239.942-.442 1.867-.729 3.878-.892 6.241-.16 2.296-.184 4.658-.208 6.943l-.004.391c-.027 2.636-.068 5.014-.271 7.391a45.283 45.283 0 01-3.732 14.647 54.152 54.152 0 01-2.968 5.749c-1.355 2.29-2.951 4.659-4.844 7.2-1.629 2.186-3.337 4.318-5.118 6.499-.659.811-1.375 1.672-2.054 2.503l-.099.12c-.715.87-1.436 1.747-2.159 2.634-3.804 4.667-6.989 9.508-9.457 14.387-2.502 4.928-4.314 9.984-5.4 15.055a56.065 56.065 0 00-1.247 11.254 56.8 56.8 0 00.384 7.152 65.195 65.195 0 002.813 12.808 61.72 61.72 0 002.762 6.981 57.187 57.187 0 002.63 4.969c2.307 3.879 5.015 7.35 8.05 10.316a39.144 39.144 0 0010.787 7.494c3.809 1.792 8.058 3.061 12.63 3.771 2.578.4 5.295.628 8.119.683 1.668.032 3.373.004 5.11-.085a93.254 93.254 0 007.18-.645c7.523-.974 15.089-2.952 22.491-5.881 7.104-2.81 14.097-6.506 20.768-10.978 6.431-4.31 12.551-9.335 18.19-14.936 4.64-4.609 8.923-9.421 12.733-14.303 1.49-1.91 2.911-3.835 4.26-5.77a118.26 118.26 0 006.353-10.146c3.25-5.849 5.802-11.74 7.589-17.515.986-3.187 1.669-6.388 2.029-9.516.385-3.34.401-6.594.046-9.674a34.816 34.816 0 00-1.302-6.276 31.614 31.614 0 00-1.108-3.043c-1.8-4.254-4.363-7.971-7.81-11.316a40.74 40.74 0 00-1.42-1.312c-4.206-3.706-9.041-6.478-13.234-8.718-1.867-.992-3.796-1.973-5.663-2.924-2.508-1.277-5.092-2.594-7.598-3.982-.293-.162-.585-.326-.876-.49a37.05 37.05 0 01-2.488-1.541 45.397 45.397 0 01-4.883-3.835c-2.041-1.827-4.118-3.961-6.345-6.517-.496-.568-.983-1.14-1.464-1.711a254.643 254.643 0 01-4.294-5.287c-1.564-1.961-3.181-3.98-4.837-5.902a98.3 98.3 0 00-1.202-1.369 63.13 63.13 0 00-4.013-4.119c-1.976-1.844-3.903-3.351-5.887-4.62zm.427-.88c2.035 1.298 4.013 2.831 6.039 4.702 1.675 1.547 3.417 3.352 5.307 5.534.276.318.551.638.825.96a231.293 231.293 0 014.066 4.96c1.794 2.234 3.712 4.617 5.755 6.948.486.555.965 1.089 1.437 1.605 1.677 1.833 3.275 3.426 4.85 4.833 2.419 2.161 4.782 3.887 7.223 5.27l.403.227c.987.554 1.988 1.097 2.995 1.631 1.689.897 3.392 1.768 5.061 2.621 1.876.959 3.815 1.947 5.694 2.948 4.252 2.276 9.158 5.093 13.448 8.876 4.292 3.789 7.396 8.043 9.494 13.013.168.399.329.802.483 1.21.986 2.626 1.655 5.442 1.992 8.39.171 1.492.257 3.023.259 4.584a44.12 44.12 0 01-.051 2.174 47.312 47.312 0 01-.257 3.146 53.812 53.812 0 01-2.068 9.707c-1.808 5.846-4.388 11.806-7.673 17.719a119.593 119.593 0 01-6.642 10.571 133.708 133.708 0 01-4.065 5.49c-3.839 4.921-8.156 9.77-12.83 14.414-5.685 5.646-11.855 10.712-18.339 15.059a73.51 73.51 0 01-.46.307c-6.6 4.38-13.507 8.009-20.522 10.783-7.484 2.961-15.135 4.962-22.745 5.947a91.205 91.205 0 01-4.846.499c-.809.062-1.626.115-2.43.156a74.073 74.073 0 01-4.134.098c-3.249-.014-6.367-.251-9.311-.708-4.669-.725-9.011-2.023-12.91-3.857a40.204 40.204 0 01-11.068-7.686c-3.106-3.031-5.876-6.574-8.235-10.532a58.815 58.815 0 01-3.35-6.526 63.076 63.076 0 01-2.155-5.646 66.267 66.267 0 01-2.945-13.76 57.335 57.335 0 011.26-19.326c1.13-4.735 2.879-9.447 5.22-14.048 2.501-4.943 5.725-9.845 9.575-14.566.757-.928 1.511-1.846 2.258-2.755.779-.951 1.592-1.932 2.343-2.858 1.667-2.047 3.268-4.053 4.796-6.103 1.987-2.667 3.641-5.14 5.029-7.528a52.759 52.759 0 002.673-5.232 44.272 44.272 0 003.649-14.332c.199-2.343.239-4.701.265-7.316l.004-.39c.023-2.298.046-4.674.208-6.999.148-2.158.398-4.033.774-5.775.116-.542.244-1.07.385-1.591 1.562-5.763 4.981-10.811 9.896-14.618a30.747 30.747 0 013.493-2.33c3.944-2.249 8.409-3.645 12.923-4.005 6.164-.498 12.007.951 16.954 4.105z"></path><path class="st0" d="M90.622 21.173c-4.059-2.533-8.777-3.8-13.782-3.611-.499.017-1.001.048-1.505.093-3.579.322-7.121 1.361-10.341 3.002-.917.47-1.808.989-2.666 1.552-.627.415-1.236.854-1.825 1.317-4.432 3.475-7.52 8.05-8.943 13.259-.08.291-.155.586-.227.884-.421 1.754-.698 3.642-.86 5.856-.161 2.154-.195 4.369-.23 6.51-.002.003-.004.363-.006.366-.039 2.47-.092 4.7-.295 6.928a42.71 42.71 0 01-3.564 13.722 51.173 51.173 0 01-2.803 5.388c-1.279 2.148-2.783 4.369-4.563 6.749-1.534 2.049-3.14 4.049-4.815 6.093-.612.753-1.303 1.578-1.934 2.349l-.093.113a716.1 716.1 0 00-2.028 2.468c-3.573 4.372-6.575 8.911-8.908 13.485-2.376 4.633-4.102 9.38-5.146 14.14a52.82 52.82 0 00-1.23 10.579 53.394 53.394 0 00.477 7.984 60.707 60.707 0 002.431 10.807 57.16 57.16 0 002.576 6.578 53.015 53.015 0 002.468 4.681c2.169 3.65 4.723 6.912 7.594 9.697a36.831 36.831 0 0010.138 7.007c3.578 1.675 7.566 2.859 11.857 3.52 2.421.373 4.97.584 7.621.633 1.565.029 3.166.001 4.795-.084a90.835 90.835 0 004.494-.348 86.048 86.048 0 002.24-.261c7.057-.918 14.159-2.777 21.112-5.527 6.702-2.648 13.307-6.134 19.608-10.35 6.079-4.065 11.863-8.806 17.191-14.091 4.376-4.342 8.416-8.876 12.01-13.48 1.405-1.8 2.745-3.615 4.017-5.439a112.018 112.018 0 005.994-9.565c3.071-5.52 5.478-11.071 7.16-16.51a49.563 49.563 0 001.91-8.968c.361-3.143.373-6.205.036-9.102a32.735 32.735 0 00-1.233-5.9 29.818 29.818 0 00-1.046-2.859c-1.695-3.991-4.108-7.484-7.354-10.639-.43-.417-.874-.829-1.333-1.234-3.946-3.483-8.484-6.101-12.427-8.229-1.749-.936-3.556-1.863-5.306-2.762-2.35-1.208-4.769-2.454-7.117-3.767-.275-.153-.548-.308-.821-.463a34.87 34.87 0 01-2.331-1.455 43.458 43.458 0 01-4.58-3.61c-1.918-1.721-3.87-3.725-5.963-6.119-.466-.533-.926-1.069-1.378-1.604a256.966 256.966 0 01-4.05-4.948c-1.479-1.833-3.006-3.717-4.57-5.506a74.522 74.522 0 00-1.136-1.273 57.317 57.317 0 00-3.787-3.815c-1.861-1.698-3.672-3.08-5.533-4.241zm.341-.871c1.911 1.185 3.774 2.587 5.686 4.308 1.583 1.425 3.234 3.091 5.022 5.117.262.295.522.592.782.892a206.365 206.365 0 013.855 4.621c1.699 2.086 3.513 4.315 5.444 6.502.459.52.91 1.022 1.357 1.507 1.58 1.719 3.086 3.217 4.57 4.544 2.274 2.033 4.494 3.664 6.785 4.976l.378.215c.926.525 1.865 1.04 2.809 1.546 1.585.852 3.183 1.68 4.749 2.49 1.76.91 3.579 1.847 5.343 2.794 4.005 2.166 8.614 4.832 12.643 8.393 4.043 3.58 6.966 7.584 8.941 12.253.159.375.311.755.456 1.139.931 2.471 1.563 5.12 1.882 7.893.162 1.404.244 2.845.247 4.315a42.724 42.724 0 01-.286 5.009c-.345 3.011-1 6.09-1.948 9.158-1.703 5.51-4.138 11.13-7.243 16.714a113.347 113.347 0 01-6.269 9.972 125.75 125.75 0 01-3.836 5.179c-3.625 4.644-7.699 9.217-12.112 13.595-5.373 5.328-11.205 10.109-17.335 14.21l-.434.289c-6.238 4.132-12.768 7.558-19.392 10.175-7.034 2.781-14.22 4.662-21.363 5.592a88.195 88.195 0 01-6.836.621c-1.314.068-2.609.1-3.882.095-3.052-.011-5.98-.231-8.746-.657-4.385-.676-8.465-1.888-12.13-3.603a37.85 37.85 0 01-10.41-7.191c-2.945-2.848-5.564-6.183-7.788-9.913a54.4 54.4 0 01-3.152-6.158 58.32 58.32 0 01-2.014-5.329 61.717 61.717 0 01-2.71-12.98 54.064 54.064 0 011.291-18.202c1.087-4.452 2.757-8.883 4.986-13.215 2.366-4.636 5.405-9.232 9.021-13.655.71-.87 1.419-1.729 2.12-2.581.723-.883 1.507-1.82 2.204-2.68 1.568-1.919 3.074-3.8 4.512-5.722 1.867-2.498 3.426-4.816 4.737-7.056a49.846 49.846 0 002.525-4.903 41.773 41.773 0 003.482-13.424c.199-2.195.25-4.406.287-6.856.002-.003.004-.363.006-.366.034-2.154.068-4.381.23-6.561.147-2.021.389-3.78.747-5.417.11-.507.231-1.003.365-1.491 1.475-5.402 4.674-10.144 9.265-13.747a28.304 28.304 0 013.26-2.205c3.678-2.129 7.842-3.472 12.056-3.854 5.752-.531 11.204.776 15.843 3.652z"></path><path class="st0" d="M90.478 26.24c-3.786-2.293-8.166-3.414-12.817-3.185-.464.023-.93.056-1.398.104-3.322.339-6.608 1.341-9.595 2.893-.851.446-1.68.934-2.475 1.467-.583.391-1.149.808-1.697 1.244-4.119 3.277-6.995 7.557-8.334 12.418-.075.272-.147.547-.214.826-.4 1.642-.667 3.406-.828 5.47-.162 2.012-.206 4.079-.252 6.078-.003.004-.005.338-.008.342-.051 2.304-.115 4.385-.318 6.464a40.183 40.183 0 01-3.396 12.798 48.187 48.187 0 01-2.638 5.026c-1.204 2.006-2.616 4.078-4.282 6.298-1.438 1.913-2.944 3.78-4.511 5.688-.565.695-1.232 1.484-1.814 2.196l-.087.105c-.628.76-1.262 1.527-1.898 2.302-3.342 4.077-6.16 8.313-8.359 12.584-2.25 4.337-3.889 8.776-4.892 13.226a49.586 49.586 0 00-1.213 9.905 50.027 50.027 0 00.399 7.483 56.212 56.212 0 002.22 10.14 52.466 52.466 0 002.391 6.175 48.622 48.622 0 002.307 4.393c2.03 3.421 4.437 6.469 7.138 9.077a34.707 34.707 0 009.488 6.52c3.346 1.557 7.075 2.657 11.085 3.268 2.263.345 4.645.54 7.122.583a64.463 64.463 0 004.481-.082 83.63 83.63 0 004.195-.328c.69-.072 1.393-.154 2.091-.246 6.592-.862 13.23-2.602 19.734-5.172 6.3-2.487 12.517-5.763 18.448-9.722 5.727-3.821 11.175-8.277 16.192-13.246 4.112-4.074 7.908-8.331 11.287-12.656 1.32-1.69 2.579-3.394 3.774-5.108a105.107 105.107 0 005.634-8.984c2.891-5.191 5.154-10.403 6.732-15.505a46.332 46.332 0 001.791-8.421c.336-2.947.345-5.815.025-8.53a30.428 30.428 0 00-1.165-5.525 27.977 27.977 0 00-.985-2.676c-1.59-3.728-3.853-6.998-6.898-9.961a35.564 35.564 0 00-1.247-1.156c-3.687-3.261-7.922-5.733-11.621-7.739-1.63-.884-3.317-1.753-4.948-2.6-2.191-1.138-4.446-2.313-6.636-3.551-.256-.145-.511-.29-.765-.436a33.954 33.954 0 01-2.174-1.368 41.432 41.432 0 01-4.277-3.386c-1.796-1.614-3.623-3.489-5.581-5.721-.437-.498-.868-.997-1.293-1.497-1.331-1.565-2.598-3.124-3.806-4.609-1.393-1.706-2.831-3.453-4.303-5.109-.362-.408-.719-.8-1.07-1.178a51.174 51.174 0 00-3.561-3.512c-1.744-1.554-3.44-2.811-5.178-3.864zm.255-.861c1.787 1.073 3.536 2.343 5.333 3.914 1.491 1.303 3.051 2.83 4.737 4.701.247.272.494.547.739.824a176.447 176.447 0 013.643 4.283c1.605 1.937 3.315 4.013 5.133 6.055.431.485.856.954 1.276 1.408a63.715 63.715 0 004.289 4.255c2.128 1.905 4.206 3.44 6.347 4.681l.353.203c.865.496 1.742.983 2.624 1.462a307.77 307.77 0 004.437 2.358c1.644.862 3.344 1.743 4.991 2.64 3.762 2.048 8.07 4.571 11.839 7.91 3.794 3.37 6.535 7.125 8.389 11.493.15.352.292.708.429 1.068a31.11 31.11 0 011.773 7.396c.153 1.317.232 2.668.236 4.046.002.635-.012 1.275-.042 1.921a41.396 41.396 0 01-.223 2.777 47.403 47.403 0 01-1.828 8.609c-1.598 5.173-3.888 10.454-6.813 15.709a106.503 106.503 0 01-5.897 9.373 118.004 118.004 0 01-3.607 4.867c-3.41 4.367-7.242 8.665-11.393 12.776-5.06 5.01-10.555 9.506-16.33 13.362l-.409.272c-5.877 3.884-12.029 7.107-18.261 9.567-6.584 2.602-13.305 4.363-19.982 5.236a81.27 81.27 0 01-4.259.445c-.711.056-1.429.103-2.135.14-1.229.065-2.44.095-3.631.092-2.854-.008-5.593-.21-8.181-.605-4.102-.627-7.919-1.753-11.35-3.35a35.783 35.783 0 01-9.753-6.696c-2.776-2.674-5.252-5.793-7.34-9.294a49.79 49.79 0 01-2.953-5.79 53.902 53.902 0 01-1.874-5.012 57.134 57.134 0 01-2.411-11.554c-.022-.215-.044-.43-.063-.646a50.73 50.73 0 011.322-17.078c1.044-4.169 2.644-8.314 4.752-12.381 2.241-4.324 5.085-8.619 8.467-12.745.664-.811 1.326-1.612 1.982-2.406.667-.815 1.421-1.708 2.064-2.502a162.565 162.565 0 004.228-5.342c1.748-2.329 3.211-4.492 4.445-6.584a47.052 47.052 0 002.377-4.574 39.288 39.288 0 003.315-12.516c.199-2.048.261-4.11.309-6.395.002-.004.005-.337.008-.341.045-2.01.089-4.088.251-6.124.146-1.884.38-3.528.72-5.059.104-.473.218-.936.344-1.391 1.388-5.04 4.367-9.477 8.633-12.875a27.762 27.762 0 013.027-2.081c3.412-2.009 7.275-3.299 11.189-3.702 5.343-.565 10.403.601 14.734 3.2z"></path><path class="st0" d="M90.334 31.308c-3.513-2.054-7.555-3.036-11.853-2.759a25.93 25.93 0 00-1.29.114 25.023 25.023 0 00-11.133 4.166c-.539.369-1.061.761-1.568 1.172-3.806 3.078-6.47 7.065-7.726 11.578-.071.253-.138.509-.201.768-.379 1.529-.636 3.17-.796 5.085-.162 1.87-.218 3.789-.275 5.645-.003.005-.007.312-.01.318-.063 2.138-.138 4.071-.342 6.001a37.675 37.675 0 01-3.227 11.873 45.48 45.48 0 01-2.472 4.664c-1.128 1.863-2.448 3.788-4.001 5.847-1.343 1.777-2.747 3.511-4.208 5.283-.518.637-1.16 1.389-1.694 2.042l-.081.098c-.585.705-1.175 1.417-1.767 2.136-3.111 3.782-5.738 7.72-7.81 11.683-2.116 4.045-3.677 8.172-4.637 12.311a46.355 46.355 0 00-1.197 9.231 46.642 46.642 0 00.322 6.98 51.725 51.725 0 002.008 9.473 47.925 47.925 0 002.205 5.772 43.91 43.91 0 002.145 4.105c1.892 3.192 4.146 6.03 6.682 8.458a32.413 32.413 0 008.839 6.033c3.115 1.44 6.583 2.455 10.313 3.017 2.105.317 4.32.495 6.623.533 1.36.022 2.75-.005 4.166-.081a76.161 76.161 0 005.839-.538c6.127-.806 12.301-2.426 18.356-4.817 5.897-2.326 11.727-5.392 17.287-9.093 5.375-3.576 10.486-7.749 15.193-12.401 3.848-3.806 7.401-7.786 10.564-11.833a109.993 109.993 0 003.531-4.777 98.965 98.965 0 005.275-8.403c2.712-4.862 4.83-9.735 6.303-14.499a43.26 43.26 0 001.672-7.873c.312-2.75.317-5.426.014-7.958a28.329 28.329 0 00-1.096-5.149 26.358 26.358 0 00-.923-2.492c-1.485-3.465-3.598-6.512-6.441-9.284a34.319 34.319 0 00-1.16-1.077c-3.427-3.038-7.363-5.358-10.815-7.25-1.512-.829-3.077-1.642-4.59-2.439-2.032-1.069-4.123-2.173-6.155-3.336l-.71-.409a31.807 31.807 0 01-2.018-1.282 39.321 39.321 0 01-3.973-3.162c-1.673-1.508-3.375-3.253-5.2-5.323-.408-.462-.811-.926-1.207-1.39-1.245-1.453-2.43-2.897-3.562-4.27-1.307-1.579-2.656-3.19-4.036-4.713-.34-.375-.674-.735-1.003-1.082a45.822 45.822 0 00-3.335-3.209c-1.629-1.411-3.21-2.543-4.825-3.487zm.169-.853a34.023 34.023 0 014.98 3.52c1.399 1.181 2.864 2.573 4.452 4.284.232.25.465.502.696.756a154.134 154.134 0 013.432 3.944c1.51 1.788 3.117 3.71 4.821 5.608.404.451.802.887 1.196 1.309a62.116 62.116 0 004.008 3.967c1.983 1.777 3.917 3.217 5.909 4.387l.328.192c.804.467 1.619.926 2.438 1.378 1.377.762 2.764 1.502 4.124 2.226 1.529.813 3.109 1.642 4.639 2.485 3.516 1.937 7.526 4.309 11.034 7.427 3.545 3.161 6.105 6.667 7.836 10.733.14.329.274.661.402.997a28.957 28.957 0 011.663 6.9c.145 1.229.219 2.49.224 3.776.002.593-.01 1.191-.038 1.794a38.541 38.541 0 01-.207 2.593 44.205 44.205 0 01-1.708 8.059c-1.493 4.836-3.638 9.778-6.383 14.704a100.263 100.263 0 01-5.524 8.774 110.933 110.933 0 01-3.377 4.556c-3.196 4.091-6.786 8.112-10.674 11.957a103.372 103.372 0 01-15.326 12.513l-.383.254c-5.515 3.636-11.291 6.656-17.131 8.958-6.134 2.422-12.39 4.063-18.601 4.88a78.894 78.894 0 01-3.966.418c-.662.052-1.33.097-1.988.132a61.39 61.39 0 01-3.38.089 51.481 51.481 0 01-7.616-.554c-3.818-.577-7.373-1.619-10.57-3.096a33.495 33.495 0 01-9.096-6.202 41.016 41.016 0 01-6.893-8.675 45.708 45.708 0 01-2.755-5.422 49.058 49.058 0 01-1.733-4.696 52.71 52.71 0 01-2.24-11.419 47.423 47.423 0 011.353-15.953c1.002-3.886 2.524-7.749 4.518-11.548 2.108-4.016 4.765-8.006 7.913-11.834a581.75 581.75 0 011.845-2.231c.612-.747 1.335-1.597 1.925-2.324a153.568 153.568 0 003.944-4.961c1.629-2.16 2.997-4.169 4.153-6.111a44.281 44.281 0 002.229-4.246 36.775 36.775 0 003.148-11.609c.199-1.901.272-3.815.332-5.934.003-.005.007-.312.01-.317.056-1.866.11-3.795.273-5.686.145-1.748.37-3.275.693-4.701.098-.439.205-.868.323-1.291 1.301-4.679 4.06-8.811 8.002-12.003a25.913 25.913 0 012.794-1.956 25.968 25.968 0 0110.322-3.551c4.939-.596 9.608.429 13.63 2.75z"></path><path class="st0" d="M90.189 36.375c-3.239-1.814-6.944-2.658-10.889-2.332a22.9 22.9 0 00-1.182.125 23.309 23.309 0 00-10.195 3.972c-.495.346-.974.715-1.439 1.099-3.492 2.88-5.945 6.572-7.117 10.737-.066.234-.129.47-.189.71-.358 1.417-.605 2.934-.764 4.7-.163 1.728-.229 3.499-.297 5.213-.004.006-.008.287-.012.293-.075 1.972-.162 3.756-.366 5.538a35.14 35.14 0 01-3.059 10.949 42.726 42.726 0 01-2.307 4.303c-1.053 1.721-2.28 3.498-3.72 5.396-1.247 1.641-2.551 3.243-3.905 4.878-.471.579-1.089 1.295-1.574 1.888l-.075.09c-.542.65-1.088 1.307-1.636 1.971-2.879 3.487-5.322 7.123-7.262 10.781-1.988 3.75-3.464 7.567-4.383 11.397a43.036 43.036 0 00-1.18 8.557 43.093 43.093 0 00.244 6.479 47.29 47.29 0 001.797 8.806 43.661 43.661 0 002.019 5.369 39.87 39.87 0 001.983 3.817 36.086 36.086 0 006.226 7.838 30.11 30.11 0 008.189 5.546c2.884 1.322 6.092 2.253 9.541 2.766 1.947.29 3.995.451 6.124.483a55.022 55.022 0 003.851-.08 69.122 69.122 0 005.393-.503c5.662-.75 11.372-2.251 16.977-4.462 5.495-2.164 10.937-5.02 16.127-8.465a95.3 95.3 0 0014.194-11.556 116.057 116.057 0 009.841-11.009 102.003 102.003 0 003.288-4.445 92.467 92.467 0 004.915-7.822c2.533-4.533 4.506-9.067 5.874-13.494a40.04 40.04 0 001.553-7.325c.288-2.553.289-5.037.004-7.386a26.165 26.165 0 00-1.028-4.773 24.03 24.03 0 00-.862-2.308c-1.381-3.202-3.343-6.026-5.985-8.607-.346-.338-.704-.67-1.073-.999-3.168-2.816-6.804-4.983-10.008-6.76-1.394-.773-2.837-1.532-4.233-2.277-1.873-1-3.8-2.033-5.674-3.121a69.968 69.968 0 01-.654-.383 30.106 30.106 0 01-1.861-1.196 37.37 37.37 0 01-3.67-2.938c-1.55-1.401-3.128-3.018-4.818-4.926-.379-.427-.753-.855-1.122-1.282-1.158-1.34-2.263-2.67-3.317-3.931-1.222-1.451-2.481-2.927-3.769-4.316-.317-.342-.63-.67-.937-.987a41.346 41.346 0 00-3.109-2.906 28.63 28.63 0 00-4.469-3.112zm.083-.843a31.015 31.015 0 014.627 3.126 44.686 44.686 0 014.167 3.867c.218.228.436.457.653.688a128.347 128.347 0 013.22 3.605c1.416 1.64 2.918 3.408 4.51 5.162.377.416.748.819 1.115 1.21a60.494 60.494 0 003.728 3.678c1.838 1.649 3.629 2.994 5.47 4.093l.303.18c.743.439 1.496.87 2.253 1.294 1.273.717 2.555 1.414 3.812 2.094 1.413.765 2.873 1.541 4.288 2.331 3.27 1.825 6.982 4.048 10.229 6.944 3.296 2.951 5.675 6.208 7.283 9.973.131.305.256.614.375.926a26.808 26.808 0 011.553 6.403 30.98 30.98 0 01.213 3.507c.003.551-.008 1.107-.033 1.667a35.628 35.628 0 01-.19 2.409 41.12 41.12 0 01-1.588 7.51c-1.388 4.5-3.388 9.102-5.953 13.698a93.57 93.57 0 01-5.152 8.175c-1 1.425-2.051 2.841-3.148 4.244a116.918 116.918 0 01-9.955 11.138 96.41 96.41 0 01-14.322 11.664l-.358.237c-5.154 3.388-10.552 6.204-16 8.35-5.684 2.242-11.475 3.763-17.219 4.525a71.454 71.454 0 01-5.514.515 57.17 57.17 0 01-3.128.086 47.99 47.99 0 01-7.05-.502c-3.535-.528-6.827-1.484-9.791-2.842a31.215 31.215 0 01-8.439-5.707 37.445 37.445 0 01-6.445-8.056 41.248 41.248 0 01-2.557-5.055 44.47 44.47 0 01-1.592-4.379 48.247 48.247 0 01-2.004-10.639 44.099 44.099 0 011.384-14.829c.959-3.603 2.403-7.183 4.283-10.714 1.974-3.707 4.445-7.393 7.36-10.923.572-.693 1.142-1.378 1.707-2.057.556-.679 1.249-1.485 1.785-2.146a146.089 146.089 0 003.66-4.58c1.51-1.992 2.782-3.845 3.861-5.639a41.404 41.404 0 002.082-3.917 34.292 34.292 0 002.981-10.701c.199-1.753.283-3.52.354-5.473.004-.006.008-.286.011-.292.067-1.722.132-3.502.294-5.249.144-1.611.364-3.022.666-4.342.093-.405.193-.801.302-1.191 1.214-4.317 3.753-8.144 7.371-11.132a24.574 24.574 0 012.56-1.831 24.345 24.345 0 019.455-3.399c4.535-.622 8.812.252 12.523 2.296z"></path><path class="st0" d="M90.045 41.442c-2.965-1.574-6.333-2.28-9.924-1.906-.357.037-.715.08-1.075.135a21.641 21.641 0 00-9.259 3.778c-.451.324-.886.669-1.31 1.026-3.179 2.681-5.419 6.079-6.509 9.897a18.86 18.86 0 00-.176.652c-.336 1.304-.57 2.699-.733 4.315-.16 1.586-.241 3.21-.32 4.78-.004.007-.009.262-.013.269-.087 1.806-.185 3.442-.39 5.074a32.643 32.643 0 01-2.89 10.025 39.661 39.661 0 01-2.142 3.941c-.977 1.579-2.112 3.207-3.438 4.945a139.999 139.999 0 01-3.602 4.473c-.424.521-1.017 1.201-1.454 1.735l-.07.083c-.498.595-1.001 1.196-1.506 1.805-2.648 3.193-4.907 6.526-6.713 9.88-1.861 3.455-3.252 6.963-4.129 10.482a39.894 39.894 0 00-1.081 12.916c.025.314.053.628.084.942a42.97 42.97 0 001.585 8.139 38.924 38.924 0 001.834 4.966 35.542 35.542 0 001.822 3.528 32.53 32.53 0 005.77 7.219 27.822 27.822 0 007.54 5.059c2.652 1.204 5.6 2.05 8.769 2.515a42.65 42.65 0 005.626.432 50.892 50.892 0 003.536-.079 66.253 66.253 0 003.299-.269 64.63 64.63 0 001.646-.198c5.197-.694 10.443-2.075 15.599-4.107 5.093-2.003 10.147-4.649 14.967-7.837a88.282 88.282 0 0013.195-10.711 106.734 106.734 0 009.118-10.186 94.86 94.86 0 003.045-4.114 86.086 86.086 0 004.556-7.241c2.353-4.203 4.182-8.399 5.446-12.489a36.874 36.874 0 001.433-6.778c.263-2.356.261-4.647-.007-6.813a23.948 23.948 0 00-.959-4.398 22.24 22.24 0 00-.8-2.124c-1.276-2.938-3.088-5.54-5.529-7.929a28.998 28.998 0 00-.986-.92c-2.908-2.593-6.246-4.608-9.202-6.271-1.276-.718-2.598-1.422-3.875-2.115-1.715-.93-3.477-1.893-5.193-2.905-.2-.118-.4-.236-.599-.356a28.421 28.421 0 01-1.704-1.109 35.329 35.329 0 01-3.366-2.713c-1.427-1.294-2.881-2.782-4.437-4.528-.35-.391-.695-.784-1.036-1.175-1.072-1.228-2.095-2.443-3.073-3.592-1.136-1.324-2.306-2.664-3.502-3.92a53.676 53.676 0 00-.87-.891 36.301 36.301 0 00-2.882-2.603 25.734 25.734 0 00-4.116-2.734zm-.003-.833a28.172 28.172 0 014.274 2.732 38.611 38.611 0 013.881 3.451c.203.205.407.411.61.62a107.928 107.928 0 013.009 3.267c1.321 1.491 2.72 3.106 4.199 4.715.349.381.694.751 1.035 1.111a59.22 59.22 0 003.447 3.389c1.692 1.521 3.341 2.771 5.032 3.798l.278.168c.682.41 1.373.813 2.067 1.209a226.58 226.58 0 003.5 1.962c1.297.716 2.637 1.441 3.936 2.177 3.024 1.714 6.438 3.786 9.425 6.462 3.048 2.742 5.244 5.749 6.731 9.213.121.282.237.567.348.855a24.767 24.767 0 011.444 5.906c.127 1.054.194 2.135.201 3.238.003.509-.006 1.023-.029 1.54-.032.734-.09 1.477-.173 2.225a37.968 37.968 0 01-1.468 6.961c-1.283 4.163-3.138 8.426-5.523 12.693a87.342 87.342 0 01-4.779 7.576 94.993 94.993 0 01-2.919 3.933 107.69 107.69 0 01-9.236 10.319 89.45 89.45 0 01-13.317 10.816l-.333.219c-4.793 3.14-9.813 5.753-14.87 7.741-5.234 2.062-10.56 3.464-15.838 4.169a64.055 64.055 0 01-3.379.364 65.34 65.34 0 01-1.693.116c-.973.054-1.933.082-2.877.083a44.249 44.249 0 01-6.485-.451c-3.252-.479-6.281-1.35-9.011-2.589a28.911 28.911 0 01-7.781-5.212 33.932 33.932 0 01-5.998-7.438 37.068 37.068 0 01-2.359-4.687 40.45 40.45 0 01-1.452-4.062 43.777 43.777 0 01-1.732-9.339c-.014-.173-.026-.347-.038-.52a40.818 40.818 0 011.415-13.706c.916-3.32 2.283-6.618 4.049-9.881 1.841-3.4 4.124-6.78 6.806-10.013.526-.635 1.05-1.261 1.569-1.882.501-.611 1.163-1.373 1.646-1.969a136.15 136.15 0 003.376-4.2c1.39-1.823 2.567-3.521 3.569-5.166a38.534 38.534 0 001.934-3.589 31.81 31.81 0 002.814-9.793c.199-1.606.293-3.224.376-5.012.004-.007.009-.261.013-.268.077-1.578.157-3.209.316-4.811.147-1.474.355-2.77.64-3.984.087-.371.18-.733.282-1.091 1.127-3.956 3.44-7.485 6.739-10.26a22.559 22.559 0 012.327-1.706 22.675 22.675 0 018.588-3.248c4.126-.649 8.014.082 11.414 1.849z"></path><path class="st0" d="M89.901 46.51c-2.69-1.334-5.722-1.902-8.96-1.479-.321.042-.644.088-.967.145a20.017 20.017 0 00-8.321 3.584 19.3 19.3 0 00-1.181.954c-2.866 2.482-4.894 5.587-5.901 9.056-.057.196-.111.394-.164.593-.313 1.193-.538 2.463-.701 3.93-.16 1.444-.252 2.92-.342 4.348-.005.008-.01.236-.015.244-.099 1.64-.208 3.127-.413 4.611a30.144 30.144 0 01-2.722 9.1 36.932 36.932 0 01-1.977 3.579 58.186 58.186 0 01-3.157 4.494 129.57 129.57 0 01-3.299 4.068c-.376.463-.946 1.107-1.334 1.581-.018.023-.045.053-.064.075-.455.541-.914 1.086-1.375 1.639-2.417 2.898-4.491 5.929-6.164 8.979-1.734 3.16-3.04 6.359-3.874 9.568a36.676 36.676 0 00-1.125 11.82c.019.288.042.576.067.863a39.02 39.02 0 001.374 7.473 34.776 34.776 0 001.648 4.563 31.624 31.624 0 001.66 3.24 29.019 29.019 0 005.314 6.599 25.515 25.515 0 006.891 4.572c2.421 1.087 5.109 1.848 7.997 2.264a39.09 39.09 0 005.127.382 46.785 46.785 0 003.221-.077 59.476 59.476 0 004.499-.431c4.732-.638 9.513-1.9 14.221-3.752 4.691-1.842 9.357-4.277 13.806-7.209a81.279 81.279 0 0012.196-9.866 97.531 97.531 0 008.395-9.362 86.29 86.29 0 002.802-3.783 79.695 79.695 0 004.196-6.66c2.174-3.874 3.858-7.73 5.017-11.484a33.738 33.738 0 001.314-6.23c.239-2.16.233-4.258-.018-6.241a21.851 21.851 0 00-.89-4.022 20.31 20.31 0 00-.739-1.941c-1.171-2.675-2.833-5.054-5.073-7.252-.29-.284-.59-.565-.899-.842-2.649-2.37-5.687-4.233-8.396-5.782-1.159-.662-2.358-1.311-3.518-1.954a150.953 150.953 0 01-4.712-2.69 71.03 71.03 0 01-.543-.329 26.294 26.294 0 01-1.547-1.023 33.511 33.511 0 01-3.063-2.489c-1.304-1.188-2.633-2.546-4.055-4.13-.321-.356-.638-.712-.951-1.068-.985-1.116-1.925-2.218-2.829-3.253a82.32 82.32 0 00-3.235-3.523c-.272-.276-.54-.54-.804-.796a30.69 30.69 0 00-2.656-2.3 22.622 22.622 0 00-3.761-2.356zm-.089-.825a25.22 25.22 0 013.921 2.338 32.99 32.99 0 013.596 3.034c.189.183.379.366.567.552a87.914 87.914 0 012.797 2.928c1.227 1.343 2.521 2.803 3.888 4.269.322.347.64.684.954 1.012a58.858 58.858 0 003.166 3.1c1.547 1.393 3.052 2.548 4.594 3.504l.254.156c.621.381 1.25.756 1.881 1.125 1.066.627 2.136 1.237 3.187 1.83 1.181.668 2.402 1.34 3.585 2.022 2.778 1.603 5.894 3.525 8.62 5.979 2.799 2.533 4.814 5.29 6.178 8.453.112.258.219.52.321.783a22.627 22.627 0 011.334 5.41c.119.966.182 1.958.19 2.969a29.807 29.807 0 01-.18 3.455 34.797 34.797 0 01-1.347 6.412c-1.178 3.826-2.888 7.75-5.093 11.688a80.503 80.503 0 01-4.407 6.977 87.917 87.917 0 01-2.689 3.622 98.463 98.463 0 01-8.517 9.499 82.43 82.43 0 01-12.313 9.967l-.307.202c-4.431 2.892-9.074 5.302-13.739 7.133-4.784 1.882-9.645 3.164-14.457 3.814a61.105 61.105 0 01-3.086.337c-.515.043-1.034.079-1.546.109-.888.051-1.764.077-2.626.08a40.65 40.65 0 01-5.92-.399c-2.968-.43-5.735-1.215-8.231-2.335a26.618 26.618 0 01-7.124-4.717 30.419 30.419 0 01-5.55-6.819 32.904 32.904 0 01-2.161-4.319 35.909 35.909 0 01-1.311-3.745 39.782 39.782 0 01-1.534-9.078 37.498 37.498 0 011.447-12.581c.873-3.037 2.162-6.053 3.815-9.047a58.152 58.152 0 016.252-9.102c.48-.576.958-1.144 1.431-1.708.445-.543 1.078-1.262 1.507-1.791a125.88 125.88 0 003.091-3.819c1.271-1.654 2.352-3.198 3.277-4.694a36.04 36.04 0 001.786-3.26 29.364 29.364 0 002.647-8.885c.199-1.458.304-2.929.399-4.551.005-.008.01-.235.015-.243.088-1.434.178-2.916.338-4.374.146-1.338.346-2.517.613-3.626.081-.336.167-.666.261-.991 1.04-3.594 3.132-6.819 6.108-9.389a21.282 21.282 0 012.094-1.582 21.023 21.023 0 017.722-3.096c3.715-.685 7.213-.096 10.302 1.392z"></path><path class="st0" d="M89.757 51.577a13.717 13.717 0 00-7.996-1.053 20.78 20.78 0 00-.86.156 18.39 18.39 0 00-7.384 3.39c-.363.279-.712.576-1.052.881-2.553 2.284-4.369 5.094-5.292 8.216-.053.177-.103.355-.151.535-.292 1.08-.507 2.227-.669 3.545-.16 1.302-.263 2.63-.364 3.916-.006.009-.012.211-.017.22-.111 1.474-.235 2.812-.437 4.147a27.849 27.849 0 01-2.554 8.176 34.156 34.156 0 01-1.812 3.218 54.23 54.23 0 01-2.876 4.043 123.71 123.71 0 01-2.995 3.662c-.329.405-.874 1.012-1.214 1.427l-.058.068c-.411.486-.827.976-1.244 1.473-2.186 2.603-4.076 5.332-5.615 8.077-1.607 2.865-2.827 5.754-3.62 8.653a33.358 33.358 0 00-1.13 6.534 32.679 32.679 0 00-.039 4.187c.014.262.031.523.05.785a34.765 34.765 0 001.163 6.806 30.432 30.432 0 001.462 4.161 27.5 27.5 0 001.499 2.952 25.585 25.585 0 004.857 5.98 23.208 23.208 0 006.241 4.085c2.189.969 4.618 1.646 7.225 2.013 1.473.207 3.021.318 4.628.332.949.008 1.919-.017 2.907-.076a52.028 52.028 0 002.702-.229 55.17 55.17 0 001.35-.166c4.267-.582 8.584-1.724 12.842-3.397 4.289-1.68 8.567-3.906 12.646-6.581a74.223 74.223 0 0011.197-9.022 88.334 88.334 0 007.671-8.539 78.905 78.905 0 002.559-3.451 72.904 72.904 0 003.837-6.079c1.995-3.545 3.534-7.062 4.589-10.479a30.499 30.499 0 001.195-5.683c.215-1.963.205-3.868-.029-5.669a19.722 19.722 0 00-.822-3.647 18.801 18.801 0 00-.677-1.757c-1.066-2.412-2.578-4.568-4.616-6.574a24.848 24.848 0 00-.813-.764c-2.389-2.148-5.129-3.858-7.589-5.292-1.041-.607-2.118-1.201-3.16-1.792a135.924 135.924 0 01-4.231-2.474 79.75 79.75 0 01-.488-.302c-.467-.292-.93-.604-1.39-.937a31.658 31.658 0 01-2.759-2.265c-1.181-1.081-2.386-2.31-3.673-3.732-.292-.32-.58-.641-.865-.961-.899-1.004-1.757-1.991-2.585-2.914a66.84 66.84 0 00-2.968-3.127 38.293 38.293 0 00-.737-.7 25.5 25.5 0 00-2.43-1.996 19.622 19.622 0 00-3.409-1.98zm-.175-.815a22.362 22.362 0 013.568 1.943 27.462 27.462 0 013.311 2.618c.174.16.35.321.524.484a70.182 70.182 0 012.586 2.59c1.132 1.194 2.323 2.501 3.576 3.822.295.312.586.616.874.913a58.186 58.186 0 002.886 2.811c1.402 1.265 2.764 2.324 4.156 3.209l.229.144c.56.352 1.127.699 1.696 1.041.962.582 1.927 1.148 2.875 1.699 1.066.619 2.166 1.239 3.233 1.868 2.532 1.492 5.35 3.264 7.816 5.496 2.55 2.323 4.384 4.831 5.625 7.693.102.235.2.473.294.712a20.539 20.539 0 011.224 4.913c.11.879.169 1.78.178 2.7.004.425-.002.854-.02 1.287a27.54 27.54 0 01-.139 1.857 31.603 31.603 0 01-1.227 5.862c-1.073 3.489-2.638 7.074-4.663 10.683a74.29 74.29 0 01-4.034 6.378 79.269 79.269 0 01-2.46 3.31 89.372 89.372 0 01-7.798 8.68 75.362 75.362 0 01-11.309 9.118l-.282.184c-4.07 2.644-8.335 4.851-12.609 6.524-4.334 1.702-8.73 2.864-13.075 3.458a53.686 53.686 0 01-4.191.411 44.57 44.57 0 01-2.374.077 37.054 37.054 0 01-5.355-.347c-2.685-.38-5.189-1.08-7.451-2.081a24.357 24.357 0 01-6.467-4.222 26.959 26.959 0 01-5.102-6.2 29.012 29.012 0 01-1.963-3.951 31.552 31.552 0 01-1.17-3.428 35.564 35.564 0 01-1.279-7.862c-.007-.145-.015-.291-.02-.437a34.24 34.24 0 011.477-11.457c.83-2.754 2.041-5.488 3.581-8.213a54.436 54.436 0 015.698-8.191c.434-.517.866-1.028 1.293-1.533.389-.476.992-1.15 1.367-1.613a117.308 117.308 0 002.807-3.438 52.63 52.63 0 002.985-4.222 32.945 32.945 0 001.638-2.931 26.872 26.872 0 002.479-7.977c.199-1.311.315-2.634.421-4.091.006-.009.011-.21.017-.219.099-1.29.2-2.622.359-3.936.146-1.201.337-2.265.586-3.268.075-.302.154-.599.24-.891.953-3.233 2.824-6.153 5.476-8.517a19.269 19.269 0 011.861-1.457 19.428 19.428 0 016.855-2.945c3.31-.716 6.422-.269 9.197.942z"></path><path class="st0" d="M89.613 56.644a12.069 12.069 0 00-7.031-.627c-.249.051-.501.104-.752.166a16.876 16.876 0 00-6.447 3.197c-.319.257-.624.53-.923.809-2.24 2.085-3.844 4.601-4.684 7.376-.048.158-.094.317-.139.477a23.62 23.62 0 00-.637 3.16c-.16 1.16-.275 2.34-.387 3.483-.006.01-.013.185-.019.195-.123 1.307-.258 2.498-.461 3.684a25.454 25.454 0 01-2.385 7.251 30.77 30.77 0 01-1.646 2.856 49.316 49.316 0 01-2.595 3.592 113.624 113.624 0 01-2.692 3.257c-.282.347-.803.918-1.094 1.274l-.052.06c-.368.431-.74.866-1.114 1.307a49.139 49.139 0 00-5.067 7.176c-1.48 2.57-2.615 5.15-3.366 7.738a30.254 30.254 0 00-1.18 10.329c.115 2.098.428 4.162.951 6.139a26.315 26.315 0 001.277 3.758c.394.926.841 1.815 1.337 2.664a22.175 22.175 0 004.401 5.361 20.938 20.938 0 005.592 3.598c1.958.852 4.126 1.444 6.453 1.762 1.315.179 2.696.274 4.129.282.847.005 1.711-.02 2.592-.075a44.98 44.98 0 002.403-.209c.396-.044.8-.095 1.201-.15 3.802-.526 7.655-1.549 11.464-3.042 3.886-1.519 7.777-3.534 11.486-5.953a67.228 67.228 0 0010.198-8.177 79.15 79.15 0 006.948-7.715 70.354 70.354 0 002.316-3.12 66.697 66.697 0 003.477-5.498c1.815-3.216 3.21-6.394 4.16-9.474.535-1.736.896-3.46 1.076-5.135a21.287 21.287 0 00-.039-5.097 17.486 17.486 0 00-.753-3.271 16.486 16.486 0 00-.616-1.573c-.961-2.149-2.323-4.082-4.16-5.897a22.722 22.722 0 00-.726-.685c-2.13-1.925-4.57-3.482-6.783-4.803-.923-.551-1.878-1.091-2.802-1.631a119.163 119.163 0 01-4.182-2.534 23.644 23.644 0 01-1.234-.85 30.132 30.132 0 01-2.456-2.041 55.682 55.682 0 01-3.292-3.334c-.263-.285-.522-.57-.78-.853-.812-.892-1.589-1.765-2.341-2.575a52.385 52.385 0 00-2.701-2.73 29.01 29.01 0 00-.671-.604 20.665 20.665 0 00-2.204-1.693 16.316 16.316 0 00-3.05-1.605zm-.261-.805c1.054.401 2.111.88 3.215 1.549a22.223 22.223 0 013.026 2.201c.16.137.321.275.481.417a52.83 52.83 0 012.374 2.251c1.04 1.043 2.125 2.199 3.265 3.375.267.277.532.548.793.814a62.276 62.276 0 002.605 2.523c1.256 1.137 2.476 2.101 3.718 2.915l.204.132c.499.323 1.004.642 1.51.957.858.537 1.717 1.059 2.562 1.567.95.571 1.93 1.139 2.881 1.714 2.285 1.381 4.806 3.002 7.011 5.013 2.301 2.114 3.953 4.372 5.073 6.933.093.212.182.425.267.641a18.488 18.488 0 011.115 4.416c.101.791.157 1.603.167 2.431a24.005 24.005 0 01-.138 2.833 28.439 28.439 0 01-1.107 5.313c-.968 3.153-2.388 6.398-4.233 9.678a67.704 67.704 0 01-3.662 5.779 72.213 72.213 0 01-2.231 2.999 80.177 80.177 0 01-7.079 7.861 68.347 68.347 0 01-10.305 8.269l-.257.167c-3.708 2.397-7.596 4.4-11.478 5.916-3.884 1.522-7.814 2.565-11.694 3.102a51.367 51.367 0 01-2.499.283 48.81 48.81 0 01-1.251.093c-.718.044-1.426.069-2.123.074a33.46 33.46 0 01-4.79-.296c-2.401-.331-4.643-.946-6.672-1.828-2.146-.933-4.083-2.202-5.809-3.727a23.591 23.591 0 01-4.655-5.581 24.937 24.937 0 01-1.764-3.583 28.125 28.125 0 01-1.03-3.111 31.601 31.601 0 01-1.052-7.123c-.004-.132-.009-.263-.012-.395a30.96 30.96 0 011.508-10.333c.787-2.471 1.92-4.923 3.347-7.38a50.725 50.725 0 015.145-7.28c.388-.458.774-.911 1.155-1.358.334-.408.906-1.039 1.228-1.435a109.33 109.33 0 002.523-3.058 48.814 48.814 0 002.693-3.749c.561-.88 1.055-1.74 1.49-2.603a24.531 24.531 0 002.312-7.069c.196-1.164.326-2.339.443-3.63.006-.01.012-.184.019-.194.11-1.146.222-2.329.381-3.499.145-1.064.328-2.012.559-2.909.069-.268.141-.531.219-.791.866-2.871 2.517-5.487 4.845-7.646a18.05 18.05 0 011.627-1.333 17.891 17.891 0 015.988-2.793c2.906-.75 5.633-.447 8.092.488z"></path><path class="st0" d="M89.469 61.712a10.465 10.465 0 00-6.067-.2c-.214.056-.429.112-.644.177a15.426 15.426 0 00-5.51 3.003c-.275.234-.537.483-.794.736-1.927 1.886-3.319 4.109-4.075 6.535a22.212 22.212 0 00-.731 3.193c-.161 1.018-.286 2.05-.409 3.051-.007.011-.014.16-.021.171a42.825 42.825 0 01-.485 3.221 23.107 23.107 0 01-2.217 6.327 28.16 28.16 0 01-1.481 2.495 45.92 45.92 0 01-2.314 3.141c-.77.96-1.568 1.899-2.389 2.852-.235.29-.731.824-.974 1.12l-.046.053-.983 1.141a45.524 45.524 0 00-4.518 6.275c-1.354 2.275-2.397 4.547-3.111 6.824a27.336 27.336 0 00-1.097 5.186 26.094 26.094 0 00-.144 3.967 26.34 26.34 0 00.74 5.472c.282 1.167.646 2.29 1.091 3.355a18.824 18.824 0 005.121 7.117 18.632 18.632 0 004.942 3.111c1.727.734 3.635 1.242 5.681 1.511 1.157.152 2.371.229 3.631.232.744.002 1.504-.023 2.277-.073a42.445 42.445 0 003.158-.324c3.337-.47 6.726-1.373 10.086-2.687 3.484-1.358 6.987-3.163 10.325-5.324a60.176 60.176 0 009.199-7.332 70.003 70.003 0 006.225-6.892 62.407 62.407 0 002.073-2.789 60.52 60.52 0 003.118-4.916c1.636-2.887 2.886-5.726 3.731-8.469.479-1.555.8-3.093.957-4.588a18.688 18.688 0 00-.05-4.525 15.337 15.337 0 00-1.239-4.284c-.86-1.884-2.068-3.595-3.704-5.22-.207-.204-.42-.407-.639-.607-1.87-1.703-4.012-3.106-5.977-4.313-.805-.495-1.639-.98-2.445-1.469a105.25 105.25 0 01-3.646-2.291c-.361-.24-.72-.495-1.077-.764a28.925 28.925 0 01-2.152-1.816 56.022 56.022 0 01-2.91-2.936c-.234-.25-.465-.499-.694-.746-.726-.78-1.421-1.538-2.096-2.236a40.304 40.304 0 00-2.435-2.334 27.347 27.347 0 00-.604-.509 16.12 16.12 0 00-1.978-1.39 13.184 13.184 0 00-2.699-1.232zm-.347-.797c.935.289 1.875.636 2.862 1.155a17.425 17.425 0 012.74 1.784c.145.115.292.23.438.349a39.83 39.83 0 012.163 1.913c.946.894 1.926 1.896 2.954 2.929.24.243.478.48.712.715.807.807 1.573 1.55 2.324 2.234 1.111 1.009 2.188 1.878 3.28 2.62l.179.121a158.99 158.99 0 003.575 2.308c.834.522 1.694 1.039 2.53 1.559 2.039 1.271 4.266 2.737 6.207 4.53 2.056 1.9 3.523 3.913 4.52 6.173.084.188.163.378.24.57a16.354 16.354 0 011.005 3.919c.092.704.144 1.425.155 2.161a21.723 21.723 0 01-.117 2.522 25.293 25.293 0 01-.987 4.764c-.863 2.816-2.137 5.723-3.803 8.672a61.685 61.685 0 01-3.289 5.18 65.132 65.132 0 01-2.001 2.688 71.112 71.112 0 01-6.36 7.042 61.398 61.398 0 01-9.3 7.421l-.231.149c-3.347 2.149-6.858 3.949-10.348 5.307-3.434 1.342-6.899 2.265-10.313 2.747a44.427 44.427 0 01-3.309.341 35.14 35.14 0 01-1.872.071 29.704 29.704 0 01-4.224-.244c-2.118-.282-4.096-.811-5.892-1.574-1.9-.807-3.615-1.91-5.152-3.232a20.227 20.227 0 01-4.207-4.962 21.176 21.176 0 01-1.566-3.216 23.895 23.895 0 01-.889-2.795 27.465 27.465 0 01-.829-6.738 27.767 27.767 0 011.539-9.21c.749-2.186 1.798-4.358 3.112-6.546a47.224 47.224 0 014.591-6.37c.342-.4.682-.794 1.017-1.184.278-.34.82-.927 1.088-1.258.769-.895 1.517-1.777 2.239-2.677a44.416 44.416 0 002.401-3.277c.504-.767.948-1.52 1.343-2.274a22.17 22.17 0 002.145-6.161c.196-1.017.337-2.043.466-3.169.007-.011.014-.159.02-.17.121-1.002.243-2.036.403-3.061.144-.928.319-1.759.532-2.551.063-.234.128-.464.199-.691.779-2.51 2.209-4.82 4.214-6.774a16.621 16.621 0 011.394-1.208 16.475 16.475 0 015.121-2.642c2.496-.778 4.842-.62 6.981.04z"></path><path class="st0" d="M89.324 66.779a8.958 8.958 0 00-5.103.226c-.178.06-.358.12-.537.187A14.213 14.213 0 0079.111 70c-.231.212-.45.437-.665.664-1.613 1.688-2.789 3.618-3.467 5.695a21.27 21.27 0 00-.688 2.75c-.161.876-.297 1.761-.432 2.618-.008.012-.015.134-.023.147a36.98 36.98 0 01-.508 2.757 20.833 20.833 0 01-2.048 5.402 25.215 25.215 0 01-1.316 2.133 42.338 42.338 0 01-2.033 2.69 96.427 96.427 0 01-2.086 2.447c-.188.232-.66.729-.854.967l-.04.045-.852.976a42.232 42.232 0 00-3.969 5.373c-1.228 1.98-2.185 3.943-2.857 5.909a23.856 23.856 0 00-1.302 7.428 33.49 33.49 0 00-.001.549c.009 1.648.179 3.265.528 4.806.225 1.029.528 2.017.905 2.952.292.729.631 1.425 1.014 2.087a15.604 15.604 0 003.489 4.122 16.32 16.32 0 004.293 2.624c1.495.616 3.143 1.04 4.909 1.26.999.124 2.046.185 3.132.182a29.849 29.849 0 001.962-.072 34.942 34.942 0 001.806-.169c.299-.035.602-.075.905-.119 2.871-.415 5.797-1.198 8.707-2.332 3.082-1.196 6.197-2.792 9.165-4.696a53.24 53.24 0 008.2-6.487c2-1.933 3.849-3.971 5.502-6.068.639-.81 1.249-1.63 1.83-2.458a53.916 53.916 0 002.758-4.335c1.457-2.558 2.562-5.058 3.303-7.463a21.15 21.15 0 00.838-4.04c.142-1.373.121-2.7-.061-3.952a13.277 13.277 0 00-1.109-3.726c-.755-1.621-1.813-3.109-3.248-4.542a19.842 19.842 0 00-.552-.528c-1.61-1.48-3.454-2.73-5.17-3.824-.688-.439-1.399-.87-2.087-1.307a89.69 89.69 0 01-3.108-2.049c-.308-.214-.615-.44-.92-.678a28.299 28.299 0 01-1.849-1.592 63.254 63.254 0 01-2.529-2.538l-.609-.639c-.64-.668-1.253-1.311-1.852-1.897a29.193 29.193 0 00-2.168-1.937 17.686 17.686 0 00-.538-.413 12.113 12.113 0 00-1.752-1.087 10.165 10.165 0 00-2.34-.856zm-.433-.787c.819.176 1.641.391 2.509.761a13.1 13.1 0 012.455 1.368c.131.092.264.185.395.281a28.828 28.828 0 011.951 1.574c.851.746 1.728 1.594 2.643 2.482l.632.616a88.275 88.275 0 002.044 1.945 30.387 30.387 0 002.842 2.326l.154.109a137.49 137.49 0 003.077 2.091c.718.474 1.458.939 2.178 1.405 1.792 1.161 3.722 2.475 5.402 4.047 1.807 1.691 3.093 3.454 3.967 5.413a14.219 14.219 0 011.108 3.922c.084.616.132 1.248.143 1.892a18.86 18.86 0 01-.096 2.212 22.134 22.134 0 01-.867 4.215c-.758 2.479-1.887 5.047-3.374 7.667a54.872 54.872 0 01-2.917 4.581c-.564.8-1.155 1.593-1.772 2.376a61.956 61.956 0 01-5.641 6.223 54.454 54.454 0 01-8.296 6.572l-.206.132c-2.986 1.901-6.119 3.497-9.217 4.699-2.984 1.162-5.984 1.965-8.932 2.391a38.225 38.225 0 01-2.868.306c-.548.037-1.088.06-1.62.067a26.114 26.114 0 01-3.659-.193c-1.835-.233-3.55-.676-5.112-1.321-1.653-.681-3.147-1.618-4.495-2.737-1.48-1.229-2.758-2.669-3.76-4.343a17.467 17.467 0 01-1.368-2.848c-.3-.795-.548-1.624-.748-2.478a23.332 23.332 0 01-.599-5.646l.005-.311a24.5 24.5 0 011.571-8.085c.706-1.903 1.675-3.794 2.878-5.713a43.993 43.993 0 014.037-5.459l.879-1.009c.222-.272.734-.815.949-1.08a90.602 90.602 0 001.955-2.297 40.613 40.613 0 002.109-2.805c.445-.655.841-1.299 1.195-1.946a19.913 19.913 0 001.978-5.253c.196-.87.348-1.748.488-2.708.007-.012.015-.133.022-.145.131-.857.264-1.743.424-2.624a22.145 22.145 0 01.684-2.784c.692-2.148 1.902-4.154 3.582-5.902a16.057 16.057 0 011.162-1.083 15.257 15.257 0 014.254-2.49c2.092-.813 4.063-.802 5.875-.413z"></path><path class="st0" d="M89.18 71.846a7.597 7.597 0 00-4.138.652c-.142.065-.286.128-.429.197a13.307 13.307 0 00-3.635 2.615 14.21 14.21 0 00-.536.591c-1.3 1.489-2.265 3.125-2.858 4.854l-.101.303a20.648 20.648 0 00-.542 2.004c-.162.734-.309 1.471-.454 2.186-.008.013-.017.109-.025.122a31.107 31.107 0 01-.532 2.294 18.711 18.711 0 01-1.88 4.478 22.328 22.328 0 01-1.151 1.771 38.415 38.415 0 01-1.752 2.239 85.616 85.616 0 01-1.783 2.042c-.141.174-.588.635-.734.813l-.034.038-.721.81a39.131 39.131 0 00-3.42 4.472c-1.103 1.684-1.973 3.339-2.603 4.995a20.826 20.826 0 00-1.064 3.837 19.508 19.508 0 00-.281 2.493c-.008.157-.013.314-.018.47a18.359 18.359 0 00.317 4.139c.169.891.409 1.744.72 2.549.241.63.526 1.231.852 1.799.783 1.361 1.813 2.522 3.033 3.502a14.015 14.015 0 003.644 2.137 16.35 16.35 0 004.137 1.009c.841.097 1.721.141 2.633.132a27.994 27.994 0 003.155-.22c.25-.031.504-.065.756-.103 2.406-.359 4.867-1.022 7.329-1.977 2.68-1.035 5.407-2.42 8.005-4.068a46.267 46.267 0 007.201-5.642 51.856 51.856 0 004.779-5.245c.553-.7 1.083-1.409 1.587-2.126a47.808 47.808 0 002.398-3.754c1.277-2.229 2.238-4.389 2.874-6.458.366-1.192.607-2.361.719-3.493a13.36 13.36 0 00-.072-3.38 11.065 11.065 0 00-.978-3.166c-.65-1.358-1.558-2.623-2.791-3.865a18.19 18.19 0 00-.466-.45c-1.351-1.258-2.896-2.352-4.364-3.334-.571-.382-1.159-.76-1.729-1.146a74.055 74.055 0 01-2.572-1.807 19.148 19.148 0 01-.763-.592 28.61 28.61 0 01-1.545-1.368 82.761 82.761 0 01-2.147-2.14l-.523-.531a44.75 44.75 0 00-1.608-1.558 20.236 20.236 0 00-1.901-1.541 14.473 14.473 0 00-.471-.318 8.434 8.434 0 00-1.526-.784 7.717 7.717 0 00-1.992-.477zm-.519-.777c.705-.07 1.409.144 2.156.367a9.39 9.39 0 012.17.951c.117.07.235.139.352.213.592.372 1.173.788 1.74 1.236.756.597 1.531 1.29 2.331 2.036.186.173.369.345.551.517.614.58 1.195 1.133 1.763 1.656.82.753 1.611 1.431 2.404 2.031l.129.097c.316.237.635.471.953.704.547.401 1.089.793 1.625 1.171.603.425 1.222.839 1.827 1.251 1.545 1.052 3.178 2.214 4.598 3.564 1.558 1.482 2.662 2.995 3.415 4.653a12.184 12.184 0 01.972 3.354c.075.528.119 1.07.132 1.623a15.615 15.615 0 01-.074 1.901 18.98 18.98 0 01-.747 3.666c-.653 2.142-1.637 4.371-2.944 6.662a48.753 48.753 0 01-2.544 3.982 47.718 47.718 0 01-1.543 2.065 52.834 52.834 0 01-4.922 5.404 47.395 47.395 0 01-7.292 5.723l-.18.114c-2.624 1.653-5.38 3.046-8.087 4.09-2.534.983-5.069 1.666-7.55 2.036a29.635 29.635 0 01-1.619.201 28.17 28.17 0 01-2.178.133 22.558 22.558 0 01-3.094-.141 17.322 17.322 0 01-4.332-1.067 15.158 15.158 0 01-3.838-2.242c-1.32-1.047-2.446-2.279-3.312-3.724a14.1 14.1 0 01-1.17-2.48 16.148 16.148 0 01-.608-2.161 19.385 19.385 0 01-.373-4.908l.014-.269a21.524 21.524 0 011.601-6.961c.663-1.62 1.552-3.23 2.644-4.879a41.268 41.268 0 013.483-4.548l.741-.834c.167-.204.648-.704.809-.902.57-.639 1.13-1.27 1.671-1.916a37.688 37.688 0 001.817-2.332c.386-.543.734-1.079 1.047-1.617a17.755 17.755 0 001.811-4.346c.196-.722.358-1.453.51-2.247.008-.013.016-.108.024-.121.142-.713.286-1.45.446-2.186a22.101 22.101 0 01.636-2.326c.605-1.787 1.595-3.486 2.951-5.031a14.561 14.561 0 01.929-.958 14.447 14.447 0 013.387-2.339c1.687-.849 3.29-.72 4.768-.866z"></path><path class="st0" d="M89.036 76.914c-.987.071-2.049.349-3.174 1.079-.106.069-.215.136-.322.208a13.116 13.116 0 00-2.699 2.421c-.142.169-.275.344-.407.519-.987 1.291-1.74 2.632-2.25 4.014l-.089.245a22.53 22.53 0 00-.51 1.619c-.163.592-.32 1.181-.476 1.753-.009.014-.018.084-.027.098a25.593 25.593 0 01-.556 1.83 16.953 16.953 0 01-1.712 3.554c-.299.469-.624.937-.986 1.41a36.163 36.163 0 01-1.471 1.788c-.482.553-.978 1.092-1.479 1.637-.094.116-.517.541-.614.659l-.028.03-.591.644a37.142 37.142 0 00-2.871 3.571c-.979 1.387-1.761 2.735-2.348 4.08-.048.111-.097.222-.143.335a17.7 17.7 0 00-.904 2.828 16.634 16.634 0 00-.377 2.462 14.634 14.634 0 00.105 3.472c.113.753.291 1.472.534 2.146.19.531.42 1.036.691 1.511.645 1.132 1.519 2.086 2.577 2.883a11.665 11.665 0 002.994 1.65c1.033.381 2.16.635 3.365.758.683.069 1.396.096 2.134.082a21.163 21.163 0 001.936-.127 24.423 24.423 0 001.214-.159c1.941-.303 3.938-.847 5.951-1.623 2.278-.874 4.617-2.049 6.845-3.44a39.307 39.307 0 006.202-4.797 42.655 42.655 0 004.056-4.421 39.53 39.53 0 001.344-1.795 41.306 41.306 0 002.039-3.173c1.098-1.9 1.914-3.721 2.446-5.453.31-1.01.51-1.995.6-2.945a10.84 10.84 0 00-.082-2.808 8.971 8.971 0 00-.849-2.607c-.545-1.096-1.304-2.137-2.335-3.187a19.172 19.172 0 00-.379-.372c-1.091-1.035-2.339-1.973-3.558-2.845-.454-.325-.92-.649-1.372-.984a60.905 60.905 0 01-1.825-1.397l-.211-.167a21.04 21.04 0 01-.606-.505 33.171 33.171 0 01-1.242-1.144c-.566-.549-1.147-1.133-1.765-1.742a34.481 34.481 0 00-.438-.424 24.029 24.029 0 00-1.364-1.219 12.864 12.864 0 00-1.634-1.144 9.107 9.107 0 00-.405-.222 5.362 5.362 0 00-1.3-.48c-.56-.138-1.088-.145-1.634-.106zm-.605-.769c.597-.063 1.18-.107 1.803-.027a6.405 6.405 0 011.885.534c.102.047.206.094.309.145.52.258 1.029.559 1.528.897.662.449 1.333.988 2.02 1.589.158.138.315.277.471.418.517.466 1.006.925 1.482 1.367a45.18 45.18 0 001.966 1.737l.104.085c.255.208.512.414.768.62.443.356.88.705 1.313 1.039.487.377.986.74 1.475 1.096 1.297.945 2.633 1.954 3.793 3.081 1.309 1.273 2.232 2.536 2.862 3.893a10.093 10.093 0 01.835 2.785 11.298 11.298 0 01.122 2.007 13.6 13.6 0 01-.055.936 15.808 15.808 0 01-.627 3.116c-.548 1.806-1.387 3.695-2.514 5.657a42.265 42.265 0 01-2.172 3.383 40.791 40.791 0 01-1.313 1.753 43.86 43.86 0 01-4.203 4.585 40.42 40.42 0 01-6.287 4.875l-.155.097c-2.263 1.405-4.641 2.595-6.956 3.482-2.084.803-4.154 1.366-6.169 1.68a26.546 26.546 0 01-1.987.237c-.378.03-.75.051-1.117.061a18.683 18.683 0 01-2.529-.09 14.61 14.61 0 01-3.552-.813 12.756 12.756 0 01-3.18-1.748c-1.161-.863-2.134-1.888-2.865-3.106a10.83 10.83 0 01-.972-2.112c-.2-.589-.354-1.206-.467-1.844a15.5 15.5 0 01-.146-4.169l.022-.227a18.412 18.412 0 011.632-5.837c.62-1.337 1.426-2.667 2.41-4.046a39.435 39.435 0 012.929-3.638l.604-.66c.111-.136.563-.592.67-.724.47-.511.935-1.018 1.387-1.535a35.637 35.637 0 001.525-1.86c.328-.432.626-.859.899-1.288a15.958 15.958 0 001.644-3.438c.196-.575.369-1.158.533-1.787.009-.014.017-.082.026-.096.153-.569.306-1.157.467-1.749.141-.518.29-1.002.452-1.476.045-.131.089-.262.136-.392.518-1.425 1.288-2.818 2.319-4.159a16.524 16.524 0 01.695-.834 14.414 14.414 0 012.52-2.187c1.279-.879 2.519-1.193 3.66-1.313z"></path><path class="st0" d="M88.892 81.981c-.694.268-1.44.716-2.21 1.505-.071.073-.143.144-.214.218a15.82 15.82 0 00-1.761 2.226c-.097.148-.187.298-.278.446a21.876 21.876 0 00-1.641 3.173l-.076.186a35.6 35.6 0 00-.478 1.234c-.166.449-.331.891-.499 1.321-.01.015-.019.058-.029.073-.183.477-.374.925-.579 1.367a15.992 15.992 0 01-1.543 2.629c-.255.35-.526.699-.82 1.048-.372.441-.77.885-1.19 1.336-.387.416-.782.824-1.176 1.231-.047.058-.445.446-.494.506l-.022.023-.46.478a36.872 36.872 0 00-2.323 2.67c-.857 1.089-1.55 2.13-2.094 3.166a14.542 14.542 0 00-1.03 2.489 13.557 13.557 0 00-.454 1.959 11.096 11.096 0 00-.106 2.805c.056.615.173 1.199.348 1.743.139.433.315.841.529 1.223.506.903 1.223 1.652 2.12 2.263a9.335 9.335 0 002.345 1.163 11.11 11.11 0 002.593.506c.525.041 1.071.052 1.636.032a17.22 17.22 0 001.471-.117 17.857 17.857 0 00.917-.131 23.965 23.965 0 004.573-1.268 34.686 34.686 0 005.684-2.812 32.312 32.312 0 005.203-3.952 33.748 33.748 0 003.333-3.598 34.864 34.864 0 002.78-4.056c.919-1.571 1.59-3.053 2.017-4.448.253-.829.413-1.629.48-2.398a8.255 8.255 0 00-.093-2.236 6.915 6.915 0 00-.41-1.393 8.046 8.046 0 00-.308-.654c-.439-.833-1.049-1.651-1.879-2.51a13.43 13.43 0 00-.292-.293c-.832-.813-1.785-1.592-2.751-2.356a37.998 37.998 0 01-2.358-2.004l-.155-.14a33.97 33.97 0 01-.45-.419 78.331 78.331 0 01-.939-.919c-.443-.442-.9-.897-1.384-1.345a17.06 17.06 0 00-.352-.317c-.38-.332-.751-.629-1.12-.88a7.544 7.544 0 00-1.367-.748 6.09 6.09 0 00-.338-.127 3.22 3.22 0 00-1.074-.177c-.439.004-.849.112-1.282.279zm-.691-.759c.484-.202.95-.365 1.45-.422a4.182 4.182 0 011.599.118c.088.024.177.049.266.077.447.143.886.33 1.317.559.566.301 1.133.687 1.709 1.142.131.104.261.21.39.319.419.353.817.717 1.202 1.079.53.497 1.034.985 1.528 1.443l.079.073.582.536c.339.311.671.616 1.001.908.371.328.749.642 1.123.942 1.047.839 2.088 1.693 2.988 2.598 1.059 1.065 1.802 2.077 2.309 3.133a8.016 8.016 0 01.699 2.218 8.918 8.918 0 01.116 1.611c-.004.248-.016.498-.038.752-.072.827-.24 1.684-.507 2.567-.443 1.469-1.137 3.019-2.084 4.651a36.313 36.313 0 01-2.883 4.226 34.858 34.858 0 01-3.485 3.766 33.513 33.513 0 01-5.413 4.105c-1.902 1.157-3.902 2.144-5.826 2.874-1.634.623-3.239 1.067-4.788 1.324a19.682 19.682 0 01-1.032.147 17.321 17.321 0 01-1.38.112 15.34 15.34 0 01-1.964-.038 12.034 12.034 0 01-2.773-.56 10.373 10.373 0 01-2.523-1.253c-1.005-.676-1.822-1.498-2.417-2.487a7.882 7.882 0 01-.774-1.744 9.086 9.086 0 01-.326-1.527c-.14-1.082-.113-2.24.081-3.431l.031-.186a15.261 15.261 0 011.664-4.713c.575-1.054 1.299-2.106 2.176-3.212a39.494 39.494 0 012.376-2.727l.466-.485c.056-.068.477-.48.53-.546.37-.383.74-.765 1.102-1.155a36.1 36.1 0 001.233-1.388c.268-.32.518-.639.751-.96.59-.813 1.07-1.648 1.477-2.53.197-.428.38-.862.555-1.326.009-.015.018-.057.028-.072.164-.425.326-.864.489-1.311.139-.381.28-.75.425-1.118.038-.097.076-.195.116-.292a21.834 21.834 0 011.798-3.462c.112-.173.228-.354.352-.535a16.931 16.931 0 011.653-2.036 7.265 7.265 0 012.552-1.764z"></path><path class="st0" d="M73.88 112.317c.291 1.113.975 1.98 2.032 2.579 1.283.726 2.849 1.033 4.653.913 1.466-.098 3.088-.476 4.82-1.124a29.164 29.164 0 004.524-2.184 25.413 25.413 0 004.204-3.107 24.817 24.817 0 003.469-3.906c2.045-2.871 3.115-5.26 3.269-7.304.075-.985-.075-1.889-.445-2.681-.336-.718-.866-1.45-1.669-2.303-.617-.655-1.353-1.34-2.15-2.081-.517-.481-1.004-1.038-1.52-1.627l-.392-.446c-.582-.657-1.217-1.337-1.904-1.851-.754-.564-1.489-.866-2.247-.923-.642-.049-1.223.206-1.776.779-.434.449-.841 1.081-1.245 1.931-.297.624-.54 1.254-.755 1.81-.062.159-.12.311-.176.452a34.706 34.706 0 01-1.246 2.834 20.08 20.08 0 01-1.601 2.689c-.6.844-1.264 1.626-2.03 2.391-.583.583-1.193 1.157-1.782 1.712l-.39.368a49.626 49.626 0 00-2.103 2.08 19.217 19.217 0 00-1.84 2.251 11.467 11.467 0 00-1.546 3.271 7.934 7.934 0 00-.318 2.138c.002.475.056.925.164 1.339zm28.049-14.053c-.17 2.246-1.304 4.814-3.467 7.85a25.848 25.848 0 01-3.62 4.078 26.5 26.5 0 01-4.383 3.239 30.273 30.273 0 01-4.695 2.265c-1.83.685-3.555 1.085-5.126 1.19-2.019.135-3.787-.218-5.257-1.05-1.32-.747-2.177-1.839-2.545-3.244-.309-1.18-.254-2.579.161-4.046a12.54 12.54 0 011.695-3.589 20.16 20.16 0 011.941-2.378 50.017 50.017 0 012.15-2.127l.391-.369c.583-.55 1.187-1.118 1.759-1.689a17.46 17.46 0 001.913-2.253 19 19 0 001.516-2.546 34.16 34.16 0 001.207-2.749l.173-.444c.221-.574.473-1.224.787-1.884.456-.958.928-1.683 1.444-2.218.779-.807 1.666-1.179 2.634-1.106.97.073 1.89.445 2.813 1.136.765.572 1.445 1.299 2.065 1.999l.397.451c.497.568.966 1.104 1.46 1.563.793.738 1.542 1.434 2.184 2.116.884.939 1.476 1.761 1.861 2.587.376.805.565 1.695.565 2.651a8.423 8.423 0 01-.023.567z"></path></svg> 