<?xml version="1.0" encoding="UTF-8"?> <svg xmlns="http://www.w3.org/2000/svg" version="1.1" id="Layer_1" x="0" y="0" viewBox="0 0 200 175.752" xml:space="preserve"><style>.st0{fill:#8aa29e}</style><path class="st0" d="M138.194 1.08a62.46 62.46 0 00-11.236 1.015c-6.148 1.123-12.289 3.2-18.25 6.174-5.486 2.737-10.933 6.288-16.189 10.554-1.044.848-2.077 1.693-3.101 2.531-3.462 2.834-6.733 5.511-10.119 8.019-5.309 3.932-9.94 6.698-14.575 8.704a50.38 50.38 0 01-16.496 4.069c-2.675.202-5.349.221-8.318.224h-.44c-2.57.002-5.227.004-7.808.163-3.115.192-5.68.58-8.07 1.219-6.252 1.673-11.709 5.397-15.78 10.768-3.899 5.144-6.268 11.548-6.67 18.031-.418 6.74 1.252 13.138 4.828 18.503 1.487 2.23 3.243 4.387 5.37 6.595 1.765 1.832 3.821 3.73 6.285 5.8 2.189 1.84 4.48 3.635 6.695 5.371 2.55 1.997 5.253 4.132 7.891 6.418 2.881 2.496 5.273 4.82 7.313 7.108 2.47 2.769 4.432 5.482 5.997 8.292 1.741 3.126 3.375 6.39 4.957 9.547a364.96 364.96 0 003.247 6.379c2.466 4.69 5.546 10.121 9.697 14.846 4.098 4.664 8.723 8.039 14.14 10.316 3.219 1.354 6.731 2.252 10.438 2.67 3.445.389 7.085.366 10.819-.068 3.49-.405 7.06-1.168 10.611-2.267 6.449-1.996 13.018-4.838 19.525-8.446 5.935-3.291 11.904-7.267 17.742-11.818 5.439-4.24 10.806-9.011 15.95-14.179 6.233-6.261 11.827-13.053 16.626-20.188 4.986-7.412 9.102-15.181 12.234-23.089 3.288-8.3 5.505-16.794 6.591-25.247a103.271 103.271 0 00.717-8.074c.263-5.255.029-10.253-.695-14.857-.807-5.133-2.245-9.902-4.273-14.174a43.864 43.864 0 00-8.468-12.086c-3.33-3.363-7.218-6.379-11.555-8.963-4.107-2.447-8.592-4.494-13.332-6.086a74.287 74.287 0 00-14.299-3.27 63.965 63.965 0 00-7.999-.504zM93.002 175.752c-1.744 0-3.455-.094-5.122-.282-3.809-.43-7.421-1.354-10.736-2.748-5.572-2.343-10.325-5.81-14.533-10.599-4.226-4.81-7.346-10.311-9.842-15.057-1.11-2.111-2.201-4.29-3.257-6.397-1.576-3.146-3.206-6.4-4.935-9.505-1.526-2.74-3.443-5.389-5.859-8.099-2.009-2.252-4.368-4.545-7.214-7.01-2.62-2.269-5.31-4.395-7.841-6.378-2.231-1.747-4.529-3.548-6.732-5.4-2.493-2.096-4.576-4.018-6.367-5.878-2.172-2.255-3.968-4.461-5.491-6.745C1.365 86.091-.367 79.463.066 72.485c.415-6.693 2.861-13.304 6.888-18.616 4.218-5.565 9.875-9.423 16.361-11.159 2.461-.659 5.093-1.058 8.282-1.254 2.613-.161 5.287-.163 7.873-.165l.439-.001c2.947-.003 5.6-.021 8.238-.22a49.31 49.31 0 0016.148-3.984c4.557-1.973 9.12-4.7 14.362-8.581 3.364-2.492 6.625-5.161 10.077-7.987a968.122 968.122 0 013.105-2.534c5.317-4.316 10.831-7.91 16.388-10.682 6.053-3.02 12.29-5.129 18.539-6.27A64.058 64.058 0 01146.33.514a75.36 75.36 0 0114.508 3.318c4.812 1.616 9.369 3.696 13.541 6.182 4.415 2.631 8.375 5.703 11.77 9.13a44.92 44.92 0 018.676 12.382c2.072 4.366 3.541 9.234 4.364 14.469.736 4.677.974 9.75.707 15.078a110.06 110.06 0 01-.412 5.445c-.091.894-.196 1.807-.312 2.713-1.097 8.542-3.337 17.124-6.658 25.507-3.161 7.98-7.313 15.817-12.342 23.294-4.837 7.192-10.475 14.038-16.757 20.347-5.177 5.2-10.577 10-16.052 14.268-5.881 4.585-11.897 8.592-17.881 11.911-6.572 3.645-13.21 6.516-19.73 8.533-3.614 1.119-7.249 1.895-10.805 2.308-2.015.236-4 .353-5.945.353z"></path><path class="st0" d="M93.194 22.485c-.989.804-1.966 1.605-2.935 2.4-3.276 2.686-6.371 5.226-9.572 7.605-.658.489-1.306.96-1.944 1.412a89.847 89.847 0 01-2.814 1.919c-3.132 2.046-6.073 3.656-9.015 4.944a47.934 47.934 0 01-15.581 3.925c-2.527.206-5.055.239-7.859.257l-.415.003-.745.005c-2.194.015-4.443.042-6.633.187-2.942.193-5.367.569-7.63 1.181a27.234 27.234 0 00-5.383 2.086c-3.677 1.895-6.927 4.631-9.575 8.088a31.382 31.382 0 00-3.551 5.895 32.759 32.759 0 00-1.147 2.823 31.764 31.764 0 00-1.724 8.253 30.377 30.377 0 00-.023 3.989c.286 4.873 1.779 9.462 4.392 13.451 1.374 2.109 3.007 4.151 4.993 6.241a68.25 68.25 0 004.358 4.183c.49.434.999.875 1.528 1.324 2.055 1.748 4.21 3.454 6.298 5.103 1.852 1.462 3.791 3 5.724 4.621.575.482 1.149.97 1.72 1.466 2.718 2.361 4.981 4.562 6.915 6.726 1.615 1.808 3.002 3.59 4.197 5.394a39.184 39.184 0 011.489 2.437c.212.379.423.76.633 1.143 1.422 2.598 2.772 5.272 4.083 7.869 1.002 1.985 2.037 4.037 3.086 6.021 2.152 4.055 4.778 8.683 8.204 12.854.336.409.68.813 1.031 1.212 3.024 3.432 6.34 6.123 10.067 8.163a35.952 35.952 0 003.36 1.616c3.057 1.281 6.392 2.127 9.912 2.516 3.263.362 6.709.334 10.245-.082 3.303-.389 6.683-1.116 10.045-2.161 6.103-1.896 12.322-4.593 18.487-8.018a121.287 121.287 0 007.473-4.519 137.928 137.928 0 009.327-6.683c5.152-4.02 10.234-8.541 15.104-13.437 5.917-5.95 11.227-12.406 15.781-19.189 4.729-7.042 8.635-14.422 11.606-21.929 3.108-7.849 5.206-15.878 6.235-23.864a99.39 99.39 0 00.683-7.633c.09-1.784.12-3.537.09-5.252-.054-3.06-.3-6.002-.736-8.79-.759-4.852-2.112-9.361-4.022-13.401a41.516 41.516 0 00-7.981-11.436c-3.144-3.191-6.815-6.048-10.913-8.493a63.372 63.372 0 00-9.206-4.509 69.362 69.362 0 00-9.382-2.943 69.95 69.95 0 00-7.545-1.361 60.21 60.21 0 00-7.564-.46c-.193 0-.385.002-.578.004-3.373.04-6.73.366-10.042.978-5.078.938-10.149 2.563-15.103 4.838a68.79 68.79 0 00-2.144 1.029c-5.185 2.595-10.333 5.959-15.304 9.999zm-.685-.835c5.034-4.093 10.249-7.5 15.504-10.131.29-.145.581-.289.872-.429 5.45-2.637 11.054-4.499 16.668-5.536a60.137 60.137 0 017.602-.908 61.098 61.098 0 0110.915.377 70.81 70.81 0 0114.755 3.467c4.183 1.473 8.149 3.322 11.801 5.503 4.175 2.493 7.917 5.408 11.124 8.665a42.569 42.569 0 018.181 11.725c1.953 4.132 3.336 8.738 4.11 13.69.481 3.076.735 6.332.759 9.724a78.135 78.135 0 01-.101 4.538 102.926 102.926 0 01-.392 5.147 98.418 98.418 0 01-.296 2.565c-1.041 8.077-3.162 16.195-6.304 24.131-2.931 7.407-6.764 14.692-11.392 21.652l-.324.485c-4.592 6.838-9.944 13.346-15.908 19.343-4.903 4.929-10.019 9.48-15.208 13.529a138.879 138.879 0 01-9.182 6.592 122.215 122.215 0 01-7.759 4.703c-6.23 3.461-12.518 6.187-18.691 8.105-3.424 1.064-6.867 1.805-10.235 2.201a48.956 48.956 0 01-5.63.342 43.37 43.37 0 01-4.852-.258 39.876 39.876 0 01-2.651-.382 36.044 36.044 0 01-7.555-2.205 36.81 36.81 0 01-4.374-2.177c-3.469-2.029-6.586-4.629-9.446-7.873a48.202 48.202 0 01-1.776-2.137c-3.138-4-5.583-8.322-7.61-12.14-1.055-1.995-2.095-4.054-3.102-6.046a367.264 367.264 0 00-2.848-5.555 141.538 141.538 0 00-1.856-3.424c-1.455-2.59-3.276-5.096-5.565-7.66-1.578-1.767-3.381-3.562-5.479-5.454-.437-.394-.887-.793-1.35-1.196-2.476-2.158-5.014-4.181-7.397-6.07a271.19 271.19 0 01-5.19-4.187c-.381-.318-.76-.637-1.136-.958-2.337-1.993-4.284-3.823-5.95-5.592-2.025-2.138-3.692-4.229-5.097-6.392-3.072-4.691-4.654-10.176-4.616-15.978.004-.693.031-1.391.081-2.092a32.951 32.951 0 013.845-13.201 32.083 32.083 0 012.785-4.321c2.954-3.855 6.631-6.844 10.806-8.813a28.292 28.292 0 014.703-1.728c2.331-.631 4.821-1.018 7.832-1.216 1.9-.126 3.833-.165 5.736-.183l1.705-.013.415-.003c2.782-.017 5.29-.05 7.782-.253a47.09 47.09 0 009.014-1.605 48.036 48.036 0 006.235-2.237c2.58-1.13 5.163-2.513 7.882-4.231a84.6 84.6 0 002.874-1.904c.917-.634 1.853-1.307 2.813-2.02 3.18-2.363 6.265-4.894 9.531-7.572.975-.797 1.953-1.6 2.942-2.404z"></path><path class="st0" d="M93.869 26.148c-.933.76-1.855 1.517-2.77 2.269-3.09 2.539-6.01 4.941-9.025 7.191-.62.463-1.23.908-1.831 1.336a86.36 86.36 0 01-2.651 1.817c-2.948 1.935-5.717 3.464-8.489 4.693a47.246 47.246 0 01-4.76 1.81 45.381 45.381 0 01-9.906 1.972c-2.38.21-4.761.258-7.401.291-.002.002-.389.003-.391.005l-.702.009c-2.066.027-4.183.065-6.247.212-2.768.195-5.054.559-7.19 1.143a26.038 26.038 0 00-5.078 1.975c-3.469 1.787-6.541 4.359-9.058 7.604a29.983 29.983 0 00-3.382 5.53 30.082 30.082 0 00-2.79 10.382 28.752 28.752 0 00-.061 3.741c.211 4.575 1.571 8.879 3.971 12.637 1.267 1.985 2.776 3.911 4.617 5.887a63.311 63.311 0 004.059 3.961c.458.411.933.828 1.428 1.253 1.922 1.656 3.941 3.272 5.902 4.836 1.738 1.384 3.56 2.84 5.379 4.372.54.455 1.08.917 1.618 1.385 2.556 2.227 4.689 4.303 6.516 6.344 1.523 1.703 2.834 3.38 3.965 5.078.505.759.974 1.522 1.41 2.293.201.356.401.715.6 1.075 1.349 2.444 2.631 4.959 3.875 7.402.951 1.867 1.932 3.797 2.924 5.664 2.058 3.837 4.555 8.206 7.796 12.14.319.387.645.769.978 1.146 2.873 3.249 6.012 5.792 9.534 7.716a33.803 33.803 0 003.18 1.524c2.895 1.208 6.053 2.002 9.386 2.361 3.08.335 6.333.302 9.672-.097 3.116-.372 6.305-1.063 9.479-2.054 5.757-1.796 11.626-4.349 17.448-7.59a115.055 115.055 0 007.054-4.272 130.235 130.235 0 008.805-6.314c4.866-3.799 9.663-8.07 14.259-12.696 5.601-5.639 10.626-11.759 14.936-18.19 4.472-6.672 8.168-13.664 10.978-20.768 2.928-7.399 4.906-14.962 5.88-22.482a92.872 92.872 0 00.648-7.192c.086-1.68.115-3.332.088-4.948a60.8 60.8 0 00-.686-8.281c-.71-4.571-1.978-8.82-3.771-12.628a39.14 39.14 0 00-7.494-10.786c-2.957-3.018-6.412-5.717-10.271-8.023a59.165 59.165 0 00-8.678-4.248 63.918 63.918 0 00-3.208-1.163 65.645 65.645 0 00-12.748-2.86 56.635 56.635 0 00-7.129-.415l-.545.005c-3.177.046-6.34.361-9.461.944-4.785.895-9.562 2.436-14.227 4.587-.675.311-1.348.635-2.018.972-4.883 2.454-9.731 5.63-14.417 9.445zm-.688-.833c4.751-3.869 9.668-7.09 14.621-9.579.274-.138.548-.273.822-.406 5.137-2.496 10.423-4.263 15.721-5.254a56.881 56.881 0 017.171-.873 57.653 57.653 0 0110.3.33 66.36 66.36 0 0113.929 3.246 61.027 61.027 0 0111.135 5.194c3.935 2.356 7.46 5.114 10.479 8.199a40.187 40.187 0 017.686 11.069c1.834 3.899 3.132 8.242 3.857 12.911.45 2.9.687 5.97.707 9.168a73.595 73.595 0 01-.098 4.278 95.448 95.448 0 01-.372 4.848c-.082.797-.176 1.61-.281 2.416-.985 7.612-2.986 15.267-5.949 22.754-2.774 7.015-6.404 13.922-10.783 20.522a73.51 73.51 0 01-.307.46c-4.347 6.484-9.413 12.654-15.059 18.339-4.629 4.658-9.461 8.961-14.363 12.789a131.575 131.575 0 01-8.673 6.232 116.073 116.073 0 01-7.329 4.449c-5.888 3.277-11.825 5.859-17.653 7.677a54.05 54.05 0 01-9.665 2.094c-1.8.215-3.578.327-5.318.333a40.97 40.97 0 01-4.581-.234 37.856 37.856 0 01-2.512-.355 33.986 33.986 0 01-11.31-4.129c-3.284-1.915-6.239-4.374-8.96-7.446a45.785 45.785 0 01-1.686-2.021c-2.974-3.776-5.303-7.86-7.244-11.476-1.001-1.879-1.989-3.818-2.948-5.694a346.17 346.17 0 00-2.71-5.231 137.668 137.668 0 00-1.762-3.222c-1.383-2.44-3.11-4.803-5.271-7.222-1.493-1.67-3.195-3.367-5.17-5.156-.412-.374-.836-.752-1.272-1.135-2.333-2.046-4.718-3.967-6.953-5.763a241.512 241.512 0 01-4.858-3.98c-.356-.302-.71-.605-1.061-.91-2.181-1.891-3.986-3.632-5.533-5.306-1.872-2.026-3.407-4.002-4.703-6.038-2.815-4.423-4.259-9.563-4.161-15.009.011-.65.043-1.305.096-1.962a31.263 31.263 0 013.722-12.375 30.556 30.556 0 012.65-4.053c2.807-3.618 6.282-6.428 10.219-8.286a27.043 27.043 0 014.438-1.638c2.201-.602 4.548-.978 7.382-1.177 1.79-.129 3.611-.175 5.403-.204l1.605-.022c.002-.002.389-.004.391-.005 2.618-.032 4.979-.079 7.325-.286a44.483 44.483 0 0014.351-3.701c2.43-1.077 4.862-2.391 7.421-4.017a78.472 78.472 0 002.707-1.804c.863-.6 1.744-1.236 2.648-1.91 2.996-2.234 5.905-4.628 8.985-7.158.917-.752 1.84-1.51 2.774-2.271z"></path><path class="st0" d="M94.543 29.81a703.66 703.66 0 00-2.604 2.138c-2.904 2.391-5.648 4.657-8.478 6.777-.582.436-1.155.856-1.719 1.26-.824.582-1.697 1.201-2.488 1.715-2.763 1.825-5.362 3.273-7.962 4.441a44.645 44.645 0 01-4.462 1.724 42.81 42.81 0 01-9.289 1.914c-2.233.214-4.467.277-6.942.325-.003.002-.364.005-.367.007l-.659.014c-1.938.039-3.924.087-5.861.238-2.594.196-4.741.549-6.751 1.105a24.805 24.805 0 00-4.773 1.865c-3.26 1.679-6.156 4.086-8.541 7.12a28.524 28.524 0 00-4.267 7.635 28.491 28.491 0 00-1.657 7.218 27.685 27.685 0 00-.098 3.493c.147 4.277 1.359 8.299 3.549 11.824 1.158 1.863 2.543 3.673 4.24 5.533a57.36 57.36 0 003.76 3.738c.426.388.868.782 1.328 1.183 1.789 1.564 3.672 3.09 5.505 4.569a251.142 251.142 0 015.034 4.124c.506.428 1.012.863 1.516 1.304 2.394 2.093 4.398 4.044 6.118 5.963 1.431 1.597 2.666 3.171 3.733 4.763.476.711.919 1.426 1.331 2.148.19.334.379.67.567 1.007 1.277 2.291 2.49 4.646 3.667 6.935.899 1.749 1.821 3.559 2.763 5.306 1.954 3.626 4.331 7.729 7.388 11.427.302.364.61.724.924 1.079 2.722 3.065 5.684 5.46 9.001 7.269a31.546 31.546 0 003 1.433c2.732 1.135 5.713 1.877 8.86 2.206 2.898.309 5.957.271 9.098-.112a50.046 50.046 0 008.913-1.948c5.41-1.696 10.929-4.104 16.41-7.162a108.652 108.652 0 006.636-4.025 122.779 122.779 0 008.282-5.945c4.579-3.579 9.091-7.6 13.413-11.955 5.285-5.328 10.026-11.112 14.091-17.191 4.215-6.301 7.701-12.906 10.35-19.608 2.748-6.948 4.606-14.045 5.524-21.099a85.898 85.898 0 00.613-6.751 67.91 67.91 0 00.086-4.643 57.241 57.241 0 00-.636-7.772c-.661-4.291-1.845-8.278-3.52-11.856a36.796 36.796 0 00-7.006-10.136c-2.77-2.846-6.009-5.386-9.63-7.553a54.787 54.787 0 00-8.151-3.987 58.818 58.818 0 00-3.013-1.087 61.3 61.3 0 00-11.972-2.654 53.069 53.069 0 00-16.083.546c-4.492.852-8.976 2.309-13.35 4.336-.633.293-1.263.598-1.892.915-4.579 2.31-9.127 5.298-13.529 8.887zm-.691-.829c4.467-3.645 9.086-6.679 13.738-9.028.257-.13.514-.258.772-.383 4.823-2.355 9.793-4.028 14.773-4.972a54.009 54.009 0 0116.424-.554 61.902 61.902 0 0113.103 3.026 56.722 56.722 0 0110.468 4.885c3.694 2.219 7.002 4.82 9.833 7.734a37.826 37.826 0 017.192 10.412c1.715 3.665 2.927 7.746 3.603 12.132.42 2.725.639 5.608.656 8.611a69.972 69.972 0 01-.095 4.018 88.383 88.383 0 01-.618 6.818c-.929 7.147-2.811 14.339-5.594 21.378-2.617 6.623-6.043 13.153-10.175 19.391l-.29.435c-4.101 6.13-8.882 11.962-14.21 17.334-4.355 4.388-8.902 8.441-13.519 12.049a124.152 124.152 0 01-8.163 5.872 109.712 109.712 0 01-6.898 4.194c-5.546 3.094-11.133 5.531-16.614 7.249a51.15 51.15 0 01-9.095 1.987 43.518 43.518 0 01-5.007.324 38.61 38.61 0 01-4.311-.211 35.094 35.094 0 01-2.373-.329 31.97 31.97 0 01-10.691-3.874c-3.099-1.801-5.893-4.118-8.473-7.019a44.838 44.838 0 01-1.597-1.905c-2.81-3.552-5.031-7.393-6.878-10.812-.951-1.761-1.883-3.582-2.793-5.342a329.653 329.653 0 00-2.572-4.907 134.487 134.487 0 00-1.668-3.02c-1.312-2.291-2.943-4.511-4.977-6.784-1.408-1.573-3.009-3.172-4.861-4.857-.388-.354-.786-.711-1.195-1.073-2.19-1.935-4.422-3.753-6.508-5.456a210.727 210.727 0 01-4.526-3.773 91.98 91.98 0 01-.985-.862c-2.025-1.788-3.692-3.438-5.117-5.021-1.721-1.912-3.126-3.772-4.309-5.685-2.565-4.15-3.865-8.951-3.705-14.04.018-.607.055-1.219.112-1.833a29.588 29.588 0 013.6-11.549 29.318 29.318 0 012.514-3.786c2.66-3.382 5.933-6.012 9.632-7.759a25.827 25.827 0 014.172-1.548c2.071-.574 4.276-.938 6.932-1.139 1.681-.131 3.389-.186 5.07-.225l1.506-.031c.003-.002.363-.005.367-.008 2.454-.047 4.669-.108 6.869-.319a42 42 0 007.953-1.521 43.303 43.303 0 005.501-2.038c2.28-1.024 4.561-2.269 6.96-3.803.808-.508 1.699-1.123 2.54-1.703a92.697 92.697 0 002.484-1.799c2.811-2.106 5.545-4.362 8.438-6.744.859-.707 1.727-1.421 2.605-2.137z"></path><path class="st0" d="M95.218 33.472c-.821.671-1.633 1.341-2.439 2.006-2.718 2.244-5.287 4.372-7.932 6.363-.544.41-1.08.805-1.607 1.184-.76.537-1.595 1.139-2.325 1.613-2.579 1.714-5.006 3.081-7.436 4.19a42.22 42.22 0 01-4.165 1.638 40.214 40.214 0 01-8.671 1.855c-2.086.218-4.173.296-6.483.359-.004.003-.339.007-.343.01l-.616.018c-1.81.051-3.665.11-5.475.263-2.42.197-4.429.538-6.311 1.067a23.699 23.699 0 00-4.468 1.754c-3.052 1.571-5.77 3.814-8.024 6.636a27.225 27.225 0 00-4.052 7.092 26.6 26.6 0 00-1.624 6.701 26.28 26.28 0 00-.136 3.244c.075 3.979 1.147 7.72 3.128 11.01 1.048 1.741 2.309 3.435 3.864 5.179a51.08 51.08 0 003.462 3.515c.393.365.802.735 1.228 1.112 1.655 1.472 3.402 2.909 5.108 4.301 1.51 1.229 3.098 2.518 4.689 3.875.472.402.944.809 1.414 1.222 2.232 1.958 4.106 3.785 5.72 5.581a41.038 41.038 0 013.501 4.447c.448.663.864 1.33 1.253 2.004.179.311.357.624.534.939 1.204 2.137 2.349 4.333 3.459 6.467.848 1.632 1.714 3.32 2.601 4.949 1.857 3.41 4.108 7.253 6.98 10.713.284.342.575.679.871 1.012 2.571 2.882 5.356 5.129 8.468 6.822.909.494 1.848.941 2.819 1.342 2.57 1.062 5.374 1.752 8.334 2.052 2.715.282 5.582.239 8.525-.126a46.957 46.957 0 008.347-1.841c5.064-1.596 10.233-3.86 15.372-6.733a102.125 102.125 0 006.217-3.778c2.606-1.71 5.2-3.574 7.759-5.576 4.292-3.358 8.519-7.13 12.567-11.213 4.969-5.018 9.425-10.465 13.246-16.192 3.959-5.931 7.235-12.148 9.722-18.448 2.568-6.497 4.306-13.129 5.168-19.716a79.154 79.154 0 00.44-4.203c.055-.701.102-1.41.138-2.107a64.12 64.12 0 00.085-4.338 53.549 53.549 0 00-.586-7.263c-.612-4.01-1.712-7.737-3.269-11.083a34.436 34.436 0 00-6.519-9.486c-2.583-2.673-5.607-5.056-8.988-7.083a50.465 50.465 0 00-7.623-3.725 55.78 55.78 0 00-7.774-2.387 56.701 56.701 0 00-6.241-1.073 49.323 49.323 0 00-6.258-.324c-.159.002-.319.004-.478.008a49.19 49.19 0 00-8.297.876c-4.199.809-8.389 2.182-12.474 4.086-.59.275-1.179.561-1.766.858-4.273 2.169-8.522 4.969-12.639 8.332zm-.695-.826c4.184-3.421 8.504-6.269 12.855-8.476.24-.122.481-.242.722-.36 4.51-2.213 9.162-3.792 13.825-4.69a50.57 50.57 0 0115.378-.567 57.318 57.318 0 0112.277 2.806 52.41 52.41 0 019.802 4.576c3.454 2.081 6.544 4.525 9.188 7.268a35.478 35.478 0 016.697 9.755c1.596 3.432 2.723 7.25 3.349 11.353.389 2.55.591 5.247.604 8.055a65.431 65.431 0 01-.092 3.758 85.563 85.563 0 01-.333 4.251 80.731 80.731 0 01-.249 2.12c-.873 6.683-2.635 13.41-5.239 20.001-2.46 6.232-5.683 12.384-9.566 18.261l-.272.41c-3.856 5.776-8.351 11.269-13.361 16.33-4.081 4.117-8.344 7.921-12.674 11.309a116.072 116.072 0 01-7.653 5.511 103.376 103.376 0 01-6.468 3.939c-5.204 2.91-10.441 5.203-15.576 6.82a48.034 48.034 0 01-8.525 1.879c-1.59.197-3.158.303-4.695.316a36.465 36.465 0 01-4.04-.187c-.755-.076-1.5-.177-2.234-.302a30.058 30.058 0 01-6.38-1.807 30.454 30.454 0 01-3.693-1.812c-2.915-1.688-5.546-3.863-7.987-6.591a42.453 42.453 0 01-1.508-1.789c-2.647-3.328-4.753-6.93-6.511-10.149-.898-1.645-1.777-3.346-2.639-4.99-.791-1.511-1.6-3.053-2.434-4.582a121.57 121.57 0 00-1.575-2.818c-1.241-2.141-2.777-4.218-4.682-6.345-1.323-1.476-2.823-2.977-4.552-4.559a91.313 91.313 0 00-1.118-1.011c-2.047-1.823-4.126-3.539-6.064-5.149a181.64 181.64 0 01-4.194-3.566c-.306-.27-.61-.542-.91-.814-1.87-1.685-3.397-3.245-4.7-4.735-1.571-1.797-2.846-3.542-3.915-5.331-2.316-3.876-3.471-8.338-3.25-13.071.024-.565.067-1.132.128-1.703a27.7 27.7 0 013.478-10.724 27.925 27.925 0 012.378-3.518c2.514-3.146 5.585-5.596 9.044-7.232a24.666 24.666 0 013.907-1.459c1.94-.546 4.004-.898 6.482-1.1 1.571-.133 3.166-.197 4.737-.246l1.406-.041c.004-.003.338-.007.342-.01 2.29-.061 4.358-.137 6.413-.352a39.33 39.33 0 007.422-1.479 41.085 41.085 0 005.133-1.938c2.129-.972 4.26-2.147 6.499-3.588.746-.469 1.596-1.067 2.373-1.602a87.499 87.499 0 002.319-1.689c2.627-1.977 5.185-4.095 7.892-6.33.805-.663 1.617-1.334 2.439-2.006z"></path><path class="st0" d="M95.893 37.135c-.766.627-1.522 1.253-2.273 1.875-2.532 2.096-4.925 4.087-7.385 5.95a85.22 85.22 0 01-1.495 1.109c-.697.492-1.493 1.077-2.162 1.511-2.394 1.604-4.65 2.89-6.909 3.939a40.252 40.252 0 01-3.867 1.552 37.627 37.627 0 01-8.054 1.797c-1.938.222-3.879.314-6.024.392-.006.004-.313.008-.319.012l-.572.022c-1.682.063-3.405.136-5.089.288-2.245.202-4.116.528-5.871 1.029-1.445.41-2.837.96-4.164 1.643-2.844 1.463-5.385 3.542-7.506 6.153a25.486 25.486 0 00-3.837 6.551 24.94 24.94 0 00-1.591 6.183 24.724 24.724 0 00-.173 2.996c.003 3.681.935 7.14 2.706 10.196.938 1.619 2.076 3.197 3.487 4.825a45.599 45.599 0 003.163 3.293c.361.342.737.689 1.128 1.042 1.522 1.38 3.133 2.727 4.711 4.034 1.396 1.151 2.866 2.358 4.344 3.626.438.375.876.756 1.313 1.141 2.069 1.824 3.814 3.527 5.321 5.199a39.043 39.043 0 013.269 4.131 31.94 31.94 0 011.174 1.859c.168.289.335.579.501.871 1.132 1.983 2.208 4.02 3.251 6 .797 1.514 1.608 3.081 2.44 4.591 1.76 3.195 3.884 6.776 6.571 9.999.267.319.54.635.818.946 2.419 2.699 5.028 4.797 7.935 6.374.851.461 1.73.878 2.639 1.251 2.408.989 5.034 1.627 7.809 1.897 2.533.255 5.206.208 7.951-.141a44.086 44.086 0 007.781-1.734c4.718-1.496 9.537-3.615 14.334-6.305a95.91 95.91 0 005.798-3.531 107.547 107.547 0 007.237-5.208c4.005-3.138 7.948-6.66 11.721-10.472a102.295 102.295 0 0012.401-15.193c3.702-5.56 6.768-11.39 9.093-17.287 2.388-6.046 4.006-12.213 4.812-18.333a76.082 76.082 0 00.544-5.869c.074-1.37.101-2.716.083-4.034a50.158 50.158 0 00-.535-6.754c-.563-3.729-1.578-7.196-3.018-10.31a32.118 32.118 0 00-6.032-8.837c-2.397-2.501-5.204-4.725-8.346-6.613a46.23 46.23 0 00-7.096-3.464 49.92 49.92 0 00-2.623-.935 52.608 52.608 0 00-10.421-2.244 46.131 46.131 0 00-6.268-.27c-2.59.062-5.17.344-7.715.842-3.906.766-7.803 2.056-11.597 3.835-.548.257-1.095.524-1.639.801-3.973 2.029-7.923 4.641-11.754 7.779zm-.699-.823c3.901-3.197 7.923-5.859 11.972-7.924.224-.114.448-.227.672-.337 4.197-2.072 8.532-3.556 12.877-4.408a46.829 46.829 0 015.878-.769 46.933 46.933 0 018.453.191 52.887 52.887 0 0111.451 2.585 48.11 48.11 0 019.135 4.266c3.214 1.944 6.087 4.231 8.542 6.802a33.11 33.11 0 016.202 9.098c1.477 3.198 2.519 6.754 3.096 10.573.359 2.375.543 4.885.553 7.499a61.753 61.753 0 01-.089 3.497 78.368 78.368 0 01-.546 5.924c-.817 6.218-2.46 12.482-4.885 18.624-2.302 5.84-5.322 11.615-8.958 17.13l-.255.384a103.415 103.415 0 01-12.513 15.325c-3.807 3.847-7.786 7.402-11.829 10.57a108.663 108.663 0 01-7.144 5.151 97.445 97.445 0 01-6.038 3.685c-4.862 2.726-9.749 4.875-14.537 6.392a45.032 45.032 0 01-7.955 1.772 38.311 38.311 0 01-4.383.307 34.11 34.11 0 01-3.77-.163 30.877 30.877 0 01-2.095-.275 28.061 28.061 0 01-5.988-1.674 28.428 28.428 0 01-3.467-1.691c-2.73-1.574-5.2-3.607-7.501-6.164a40.043 40.043 0 01-1.418-1.673c-2.483-3.105-4.475-6.466-6.145-9.485-.845-1.529-1.671-3.11-2.484-4.638a278.402 278.402 0 00-2.296-4.258c-.485-.88-.978-1.756-1.481-2.616-1.17-1.991-2.611-3.925-4.388-5.907a63.09 63.09 0 00-4.244-4.261c-.339-.313-.686-.63-1.041-.95-1.904-1.712-3.829-3.324-5.619-4.842a157.184 157.184 0 01-3.862-3.358c-.281-.254-.56-.51-.835-.766a49.584 49.584 0 01-4.283-4.449c-1.421-1.682-2.565-3.312-3.521-4.978-2.067-3.603-3.066-7.725-2.794-12.102a25.67 25.67 0 01.144-1.573 26.03 26.03 0 013.355-9.897 26.054 26.054 0 012.243-3.25c2.367-2.91 5.236-5.18 8.457-6.704a23.663 23.663 0 013.642-1.369c1.81-.518 3.732-.853 6.032-1.062a87.934 87.934 0 014.404-.267l1.307-.05c.005-.004.313-.008.318-.012 2.126-.076 4.048-.166 5.957-.385a36.826 36.826 0 006.891-1.437 38.703 38.703 0 004.766-1.838c1.979-.919 3.959-2.025 6.038-3.374.683-.43 1.494-1.01 2.206-1.501a86.404 86.404 0 002.155-1.578c2.442-1.849 4.825-3.829 7.346-5.916.749-.62 1.506-1.247 2.272-1.874z"></path><path class="st0" d="M96.568 40.797c-.71.583-1.411 1.165-2.107 1.744-2.345 1.948-4.563 3.802-6.838 5.536-.468.357-.929.701-1.382 1.033-.633.447-1.391 1.014-1.999 1.41-2.21 1.493-4.295 2.698-6.382 3.688a37.871 37.871 0 01-3.57 1.466 35.148 35.148 0 01-7.437 1.739c-1.791.226-3.585.333-5.566.426-.007.005-.288.01-.295.015l-.529.026c-1.554.075-3.146.159-4.703.313-2.071.204-3.803.517-5.432.991a21.397 21.397 0 00-3.859 1.533c-2.635 1.356-4.999 3.27-6.989 5.669a24.044 24.044 0 00-3.622 6.009 23.316 23.316 0 00-1.557 5.666 23.633 23.633 0 00-.211 2.748c-.069 3.384.723 6.561 2.284 9.383.829 1.497 1.842 2.959 3.111 4.471.82.977 1.755 1.997 2.864 3.07.329.319.671.642 1.029.971 1.389 1.288 2.864 2.546 4.314 3.767 1.282 1.073 2.635 2.197 3.999 3.377.404.349.808.702 1.211 1.06 1.907 1.69 3.523 3.268 4.923 4.817a37.17 37.17 0 013.037 3.815c.39.568.754 1.139 1.095 1.715.157.266.313.534.468.803 1.059 1.83 2.067 3.707 3.043 5.533.746 1.396 1.501 2.841 2.278 4.234 1.663 2.979 3.661 6.3 6.163 9.286.25.297.504.59.764.879 2.268 2.516 4.7 4.466 7.403 5.927.793.428 1.612.814 2.459 1.16 2.246.916 4.696 1.497 7.283 1.742 2.35.223 4.83.176 7.378-.155a40.956 40.956 0 007.215-1.628c4.372-1.396 8.841-3.371 13.295-5.877a89.525 89.525 0 005.38-3.284 100.19 100.19 0 006.714-4.839 116.275 116.275 0 0010.876-9.731 95.288 95.288 0 0011.556-14.194c3.445-5.19 6.301-10.632 8.465-16.127 2.207-5.596 3.706-11.296 4.457-16.95a68.717 68.717 0 00.386-3.616c.049-.603.09-1.213.123-1.812.069-1.266.096-2.511.081-3.729a46.29 46.29 0 00-.485-6.245c-.514-3.448-1.445-6.655-2.767-9.538a29.782 29.782 0 00-5.545-8.187c-2.21-2.329-4.801-4.394-7.704-6.143a41.962 41.962 0 00-6.568-3.202 44.94 44.94 0 00-2.428-.859 46.896 46.896 0 00-4.274-1.157 48.055 48.055 0 00-5.371-.881 42.58 42.58 0 00-5.388-.234l-.411.01c-2.394.068-4.78.338-7.133.808-3.613.723-7.216 1.929-10.721 3.584a51.61 51.61 0 00-1.513.745c-3.671 1.883-7.322 4.307-10.868 7.219zm-.703-.82c3.617-2.973 7.341-5.448 11.089-7.373.207-.106.414-.211.622-.314 3.884-1.931 7.901-3.321 11.929-4.126a43.584 43.584 0 015.447-.735 43.498 43.498 0 017.838.144 48.42 48.42 0 0110.625 2.365 43.903 43.903 0 018.469 3.957 38.206 38.206 0 017.896 6.337 30.974 30.974 0 015.707 8.441c1.358 2.965 2.314 6.258 2.842 9.794a47.83 47.83 0 01.501 6.943 57.235 57.235 0 01-.086 3.237 71.291 71.291 0 01-.51 5.477c-.761 5.753-2.284 11.554-4.53 17.248-2.145 5.448-4.961 10.846-8.349 16l-.237.359a96.454 96.454 0 01-11.664 14.321 117.424 117.424 0 01-10.985 9.83 101.611 101.611 0 01-6.634 4.791 91.109 91.109 0 01-5.607 3.43c-4.52 2.543-9.056 4.547-13.498 5.964a42.034 42.034 0 01-7.385 1.665 35.596 35.596 0 01-4.072.298 31.715 31.715 0 01-3.499-.139 28.853 28.853 0 01-1.956-.248 26.109 26.109 0 01-5.596-1.541 26.388 26.388 0 01-3.24-1.569c-2.545-1.461-4.853-3.352-7.014-5.737a37.77 37.77 0 01-1.329-1.557c-2.319-2.881-4.197-6.003-5.779-8.821-.792-1.412-1.565-2.874-2.33-4.287a253.264 253.264 0 00-2.158-3.934c-.454-.812-.916-1.62-1.387-2.415-1.099-1.841-2.444-3.632-4.094-5.469a61.578 61.578 0 00-3.935-3.963 99.583 99.583 0 00-.964-.888c-1.761-1.6-3.533-3.11-5.175-4.534a132.214 132.214 0 01-3.53-3.151c-.256-.239-.509-.479-.76-.718a44.41 44.41 0 01-3.866-4.163 30.551 30.551 0 01-3.127-4.624c-1.818-3.328-2.67-7.112-2.338-11.133.04-.479.091-.96.16-1.444a24.37 24.37 0 013.233-9.071 24.216 24.216 0 012.107-2.982c2.215-2.678 4.887-4.764 7.87-6.177a22.446 22.446 0 013.377-1.279c1.68-.489 3.46-.812 5.582-1.023a85.921 85.921 0 014.071-.288l1.207-.06c.006-.005.287-.01.294-.015 1.962-.091 3.737-.195 5.5-.418 2.19-.27 4.297-.731 6.36-1.395a36.37 36.37 0 004.398-1.739c1.829-.866 3.658-1.903 5.576-3.16.621-.39 1.392-.954 2.039-1.4a78.812 78.812 0 001.99-1.468c2.258-1.72 4.465-3.563 6.799-5.501.694-.576 1.396-1.158 2.106-1.742z"></path><path class="st0" d="M97.242 44.459c-.654.539-1.3 1.078-1.942 1.613-2.159 1.801-4.202 3.517-6.291 5.122-.43.331-.853.65-1.27.957-.57.403-1.288.952-1.836 1.308-2.025 1.382-3.939 2.507-5.856 3.436a35.339 35.339 0 01-3.272 1.38 32.598 32.598 0 01-6.819 1.681c-1.644.23-3.291.352-5.107.46-.008.006-.263.011-.271.017l-.486.031c-1.426.087-2.886.183-4.317.338-1.897.206-3.491.507-4.992.953a20.31 20.31 0 00-3.554 1.422c-2.427 1.248-4.619 2.993-6.472 5.185a22.396 22.396 0 00-3.407 5.467 21.518 21.518 0 00-1.524 5.148c-.137.841-.21 1.675-.248 2.499-.142 3.087.51 5.983 1.863 8.569.719 1.376 1.609 2.722 2.734 4.117.73.905 1.565 1.853 2.565 2.848.297.296.607.595.929.9a106.25 106.25 0 003.917 3.499c1.168.995 2.404 2.037 3.654 3.129.37.322.74.648 1.109.979 1.745 1.556 3.231 3.009 4.525 4.436a35.138 35.138 0 012.805 3.499c.361.52.699 1.043 1.016 1.57.146.244.291.489.436.735.987 1.676 1.926 3.393 2.835 5.066.694 1.278 1.395 2.602 2.117 3.876 1.566 2.764 3.437 5.823 5.755 8.572.233.275.469.546.711.812 2.117 2.333 4.372 4.135 6.87 5.48.735.395 1.494.751 2.279 1.069 2.083.843 4.356 1.371 6.757 1.588a30.58 30.58 0 006.804-.17c2.182-.29 4.416-.8 6.649-1.521 4.026-1.296 8.144-3.126 12.257-5.449a83.837 83.837 0 004.961-3.036 92.392 92.392 0 006.192-4.47 107.278 107.278 0 0010.03-8.989 88.282 88.282 0 0010.711-13.195c3.188-4.82 5.834-9.874 7.837-14.967 2.027-5.145 3.406-10.38 4.101-15.568a66.261 66.261 0 00.359-3.322 67.48 67.48 0 00.115-1.665c.065-1.163.092-2.305.079-3.424a42.735 42.735 0 00-.435-5.736c-.465-3.167-1.311-6.114-2.516-8.765a27.591 27.591 0 00-5.058-7.537 33.47 33.47 0 00-7.062-5.673 37.745 37.745 0 00-6.041-2.941 42.444 42.444 0 00-6.166-1.831 43.712 43.712 0 00-4.936-.785 39.029 39.029 0 00-5.331-.178 39.19 39.19 0 00-6.551.775c-3.32.68-6.63 1.802-9.845 3.333-.464.221-.926.45-1.387.688-3.367 1.743-6.718 3.979-9.98 6.665zm-.706-.816c3.334-2.75 6.759-5.038 10.205-6.821.19-.099.381-.196.572-.291 3.571-1.789 7.27-3.085 10.981-3.844a40.18 40.18 0 015.016-.7 39.978 39.978 0 017.223.098 44.026 44.026 0 019.799 2.144c2.78.954 5.4 2.179 7.802 3.648a34.763 34.763 0 017.251 5.871 28.66 28.66 0 015.213 7.784c1.239 2.731 2.11 5.762 2.588 9.015a44.35 44.35 0 01.45 6.387 52.72 52.72 0 01-.083 2.977 64.188 64.188 0 01-.273 3.355 67.48 67.48 0 01-.201 1.675c-.705 5.288-2.109 10.625-4.175 15.871-1.988 5.057-4.601 10.077-7.741 14.869l-.22.334a89.436 89.436 0 01-10.815 13.316 108.306 108.306 0 01-10.14 9.09 93.56 93.56 0 01-6.125 4.431 85.019 85.019 0 01-5.177 3.176c-4.178 2.359-8.364 4.218-12.46 5.536a39.036 39.036 0 01-6.815 1.557c-1.273.17-2.53.267-3.76.29a29.358 29.358 0 01-3.229-.116 26.232 26.232 0 01-1.818-.221 24.117 24.117 0 01-5.204-1.408 24.207 24.207 0 01-3.013-1.447c-2.36-1.347-4.507-3.096-6.528-5.31-.426-.469-.839-.95-1.24-1.441-2.155-2.657-3.919-5.539-5.412-8.157-.739-1.296-1.46-2.638-2.175-3.935a233.05 233.05 0 00-2.02-3.61c-.424-.744-.855-1.484-1.294-2.213-1.027-1.691-2.278-3.339-3.8-5.03a61.645 61.645 0 00-3.626-3.664c-.29-.272-.585-.548-.887-.826-1.618-1.488-3.237-2.896-4.73-4.227a108.287 108.287 0 01-3.198-2.944 72.745 72.745 0 01-.685-.671 38.454 38.454 0 01-3.449-3.877 27.438 27.438 0 01-2.733-4.271 17.858 17.858 0 01-1.883-10.165c.047-.436.103-.874.176-1.314a22.738 22.738 0 013.11-8.245c.59-.953 1.25-1.862 1.971-2.714 2.067-2.443 4.539-4.348 7.283-5.65a21.343 21.343 0 013.112-1.189c1.549-.461 3.187-.771 5.132-.985 1.242-.136 2.5-.23 3.738-.309l1.108-.069c.007-.006.262-.011.27-.017 1.798-.105 3.427-.224 5.044-.451a31.82 31.82 0 005.829-1.353c1.36-.453 2.7-.998 4.031-1.639a43.961 43.961 0 005.115-2.946c.559-.351 1.289-.898 1.872-1.299a76.22 76.22 0 001.825-1.357c2.074-1.592 4.105-3.296 6.253-5.087.64-.534 1.286-1.072 1.94-1.611z"></path><path class="st0" d="M97.917 48.122c-.598.495-1.19.99-1.776 1.481-1.973 1.653-3.84 3.232-5.744 4.708-.392.304-.778.598-1.158.881-.507.358-1.186.889-1.672 1.206-1.841 1.272-3.583 2.315-5.329 3.185-.985.486-1.974.917-2.975 1.294a30.451 30.451 0 01-6.202 1.623c-1.497.231-2.997.371-4.648.494-.009.006-.237.013-.246.019l-.443.035a90.825 90.825 0 00-3.931.363c-1.723.208-3.178.496-4.552.915a19.293 19.293 0 00-3.25 1.311c-2.219 1.14-4.234 2.72-5.955 4.701a21.075 21.075 0 00-3.191 4.926 19.925 19.925 0 00-1.491 4.631 20.315 20.315 0 00-.286 2.251c-.214 2.79.298 5.405 1.441 7.755.61 1.255 1.375 2.484 2.358 3.763.64.833 1.375 1.708 2.266 2.625.264.273.541.548.829.83a86.055 86.055 0 003.52 3.232c1.052.92 2.173 1.876 3.309 2.88.335.296.672.595 1.007.897 1.582 1.421 2.939 2.751 4.126 4.054a33.176 33.176 0 012.573 3.184c.332.472.644.947.937 1.426.135.221.269.444.403.667.914 1.522 1.786 3.08 2.627 4.598.643 1.16 1.288 2.362 1.955 3.519 1.47 2.548 3.214 5.346 5.347 7.859.215.252.434.501.657.746 1.966 2.15 4.044 3.803 6.337 5.033a21.12 21.12 0 002.099.978c1.921.77 4.017 1.245 6.231 1.433a28.18 28.18 0 006.231-.184 34.95 34.95 0 006.083-1.415c3.679-1.196 7.448-2.882 11.219-5.021a77.133 77.133 0 004.542-2.789 84.676 84.676 0 005.669-4.101 98.136 98.136 0 009.184-8.248 81.217 81.217 0 009.866-12.196c2.932-4.449 5.367-9.116 7.209-13.806 1.847-4.694 3.106-9.463 3.745-14.185a58.815 58.815 0 00.438-4.546c.061-1.059.087-2.1.078-3.119a39.366 39.366 0 00-.384-5.227c-.416-2.886-1.178-5.573-2.265-7.992a25.276 25.276 0 00-4.571-6.887 29.972 29.972 0 00-6.421-5.203 33.641 33.641 0 00-5.513-2.68 38.022 38.022 0 00-5.63-1.646 39.629 39.629 0 00-4.502-.69 35.309 35.309 0 00-4.518-.143l-.345.012a35.924 35.924 0 00-5.97.741c-3.027.637-6.043 1.675-8.968 3.082-.422.202-.842.413-1.261.631-3.06 1.6-6.112 3.649-9.089 6.109zm-.709-.814c3.051-2.526 6.178-4.627 9.322-6.27.174-.091.348-.18.522-.268 3.257-1.648 6.64-2.85 10.034-3.562a36.968 36.968 0 014.585-.665 36.452 36.452 0 016.607.051 39.545 39.545 0 018.973 1.924 35.429 35.429 0 017.136 3.339 31.331 31.331 0 016.605 5.405 26.363 26.363 0 014.718 7.127c1.12 2.498 1.905 5.266 2.335 8.236.267 1.849.4 3.8.398 5.831a49.14 49.14 0 01-.08 2.717 58.127 58.127 0 01-.437 4.584c-.649 4.823-1.933 9.697-3.821 14.495-1.831 4.665-4.24 9.308-7.133 13.739l-.203.309a82.416 82.416 0 01-9.966 12.312 99.211 99.211 0 01-9.296 8.35 85.742 85.742 0 01-5.615 4.07 78.711 78.711 0 01-4.746 2.921c-3.836 2.175-7.672 3.89-11.421 5.108a35.935 35.935 0 01-6.245 1.45c-1.168.161-2.32.255-3.448.281a26.978 26.978 0 01-2.958-.092 24.754 24.754 0 01-1.679-.194c-1.688-.253-3.3-.68-4.813-1.276a22.106 22.106 0 01-2.786-1.326c-2.175-1.234-4.16-2.841-6.042-4.883a32.96 32.96 0 01-1.15-1.325c-1.992-2.433-3.641-5.076-5.046-7.494-.686-1.18-1.354-2.402-2.021-3.583a225.603 225.603 0 00-1.882-3.285 99.692 99.692 0 00-1.2-2.011c-.953-1.543-2.112-3.046-3.506-4.592a61.696 61.696 0 00-3.317-3.366c-.265-.252-.535-.507-.81-.765-1.475-1.377-2.941-2.682-4.286-3.92a89.29 89.29 0 01-2.867-2.737 59.316 59.316 0 01-.61-.623 32.642 32.642 0 01-3.032-3.592 24.414 24.414 0 01-2.339-3.917 16.096 16.096 0 01-1.427-9.196c.054-.393.116-.788.192-1.184a21.146 21.146 0 012.988-7.42 21.18 21.18 0 011.836-2.446c1.92-2.207 4.19-3.932 6.696-5.122.92-.437 1.87-.805 2.847-1.099 1.419-.433 2.915-.731 4.682-.946a82.492 82.492 0 013.405-.33l1.008-.078c.009-.006.237-.013.245-.019 1.634-.12 3.116-.257 4.588-.483a29.733 29.733 0 005.298-1.311 31.943 31.943 0 003.664-1.539 41.698 41.698 0 004.654-2.731c.497-.312 1.187-.841 1.705-1.198a70.551 70.551 0 001.661-1.247c1.889-1.463 3.745-3.03 5.707-4.673.581-.491 1.172-.986 1.771-1.481z"></path><path class="st0" d="M98.592 51.784c-.542.451-1.079.902-1.61 1.35-1.787 1.505-3.478 2.947-5.198 4.294-.354.278-.703.546-1.046.805-.443.313-1.084.827-1.509 1.104-1.656 1.161-3.226 2.128-4.802 2.934-.885.453-1.777.853-2.678 1.208a28.037 28.037 0 01-5.584 1.565c-1.35.235-2.703.389-4.19.528-.01.007-.212.015-.222.022l-.399.039c-1.17.111-2.367.229-3.545.389-1.549.21-2.864.489-4.113.877a18.45 18.45 0 00-2.945 1.201 18.902 18.902 0 00-5.437 4.217 19.74 19.74 0 00-2.976 4.383 18.35 18.35 0 00-1.457 4.113 19.28 19.28 0 00-.323 2.002c-.287 2.494.086 4.827 1.02 6.941a18.655 18.655 0 001.981 3.409 24.4 24.4 0 001.967 2.402c.232.25.476.502.729.759a69.831 69.831 0 003.123 2.964c.938.842 1.942 1.715 2.964 2.631.301.269.604.541.906.816 1.42 1.287 2.648 2.492 3.728 3.672.88.964 1.656 1.913 2.341 2.868.304.425.589.851.858 1.281l.37.599a134.83 134.83 0 012.419 4.131c.592 1.042 1.182 2.123 1.794 3.161 1.374 2.332 2.99 4.87 4.938 7.145.198.23.399.456.604.679 1.815 1.967 3.716 3.472 5.804 4.586a18.99 18.99 0 001.918.887c1.759.696 3.677 1.12 5.705 1.279 1.803.141 3.702.081 5.657-.199a31.919 31.919 0 005.517-1.308c3.333-1.096 6.752-2.638 10.18-4.592a71.682 71.682 0 004.124-2.542 77.855 77.855 0 005.147-3.732 88.743 88.743 0 008.338-7.507 74.285 74.285 0 009.022-11.197c2.675-4.079 4.9-8.358 6.581-12.646 1.667-4.243 2.807-8.547 3.389-12.802a51.946 51.946 0 00.305-2.734c.039-.456.072-.916.099-1.369.057-.956.082-1.895.076-2.815a35.663 35.663 0 00-.334-4.718c-.367-2.605-1.045-5.032-2.014-7.219a22.95 22.95 0 00-4.084-6.237 26.527 26.527 0 00-5.779-4.733 29.462 29.462 0 00-4.985-2.418 33.417 33.417 0 00-5.093-1.46 35.384 35.384 0 00-4.067-.594 31.955 31.955 0 00-4.082-.098l-.311.013a32.535 32.535 0 00-5.388.707 35.993 35.993 0 00-8.092 2.832c-.379.184-.758.376-1.135.574-2.762 1.458-5.514 3.319-8.206 5.553zm-.713-.81c2.768-2.302 5.596-4.217 8.439-5.718.157-.083.314-.165.472-.245 2.944-1.506 6.009-2.614 9.086-3.28a33.769 33.769 0 014.154-.631 32.947 32.947 0 015.992.005 35.208 35.208 0 018.146 1.704 31.34 31.34 0 016.469 3.029 27.873 27.873 0 015.96 4.94 24.032 24.032 0 014.223 6.47c1.001 2.264 1.701 4.77 2.081 7.457.236 1.673.352 3.439.346 5.275a42.663 42.663 0 01-.078 2.456 55.973 55.973 0 01-.401 4.137c-.593 4.359-1.758 8.769-3.466 13.118-1.673 4.273-3.88 8.539-6.524 12.608l-.185.283a75.46 75.46 0 01-9.117 11.308 90.104 90.104 0 01-8.451 7.611 78.585 78.585 0 01-5.105 3.71 72.124 72.124 0 01-4.316 2.666c-3.493 1.991-6.98 3.562-10.383 4.679a32.932 32.932 0 01-5.675 1.343c-1.063.152-2.11.243-3.137.272-.914.026-1.812.003-2.688-.068a22.037 22.037 0 01-1.54-.167 20.11 20.11 0 01-4.421-1.143 20.018 20.018 0 01-2.56-1.204c-1.99-1.12-3.814-2.585-5.555-4.455a30.663 30.663 0 01-1.061-1.209c-1.833-2.205-3.362-4.612-4.68-6.83-.632-1.064-1.248-2.166-1.866-3.231-.565-.977-1.149-1.97-1.744-2.961-.365-.607-.73-1.214-1.107-1.809-.881-1.394-1.945-2.753-3.212-4.154a63.05 63.05 0 00-3.008-3.068c-.241-.232-.484-.467-.733-.703-1.331-1.265-2.645-2.468-3.841-3.613a72.005 72.005 0 01-2.535-2.53 56.17 56.17 0 01-.535-.575 27.24 27.24 0 01-2.615-3.306 21.422 21.422 0 01-1.945-3.564c-1.07-2.499-1.483-5.273-.972-8.227.061-.35.128-.702.207-1.055a19.565 19.565 0 012.866-6.594 19.922 19.922 0 011.7-2.178c1.773-1.972 3.841-3.516 6.108-4.595a19.33 19.33 0 012.581-1.009c1.289-.404 2.643-.69 4.231-.908a81.78 81.78 0 013.071-.351l.909-.088c.01-.007.211-.014.221-.022 1.469-.135 2.805-.286 4.132-.516 1.64-.285 3.22-.7 4.767-1.269a29.262 29.262 0 003.296-1.439c1.379-.705 2.755-1.537 4.193-2.517.435-.273 1.085-.785 1.538-1.097.487-.359.985-.737 1.496-1.136 1.705-1.335 3.385-2.764 5.16-4.259.534-.446 1.069-.897 1.612-1.347z"></path><path class="st0" d="M99.267 55.446c-.487.407-.968.814-1.445 1.219-1.601 1.358-3.117 2.662-4.651 3.88-.316.252-.627.495-.933.729-.38.268-.981.764-1.346 1.002-1.472 1.051-2.87 1.936-4.276 2.683-.787.418-1.58.789-2.38 1.122a25.718 25.718 0 01-4.967 1.507 46.185 46.185 0 01-3.731.561c-.011.008-.187.016-.198.024l-.356.044a90.235 90.235 0 00-3.159.414c-1.375.211-2.552.478-3.673.839-.907.292-1.789.654-2.64 1.09a17.897 17.897 0 00-4.92 3.734 18.493 18.493 0 00-2.761 3.842 16.864 16.864 0 00-1.424 3.596 18.154 18.154 0 00-.361 1.754c-.36 2.198-.126 4.251.598 6.128a15.477 15.477 0 001.605 3.055c.46.689.994 1.419 1.669 2.18.2.227.41.455.629.688a56.02 56.02 0 002.726 2.697c.824.764 1.711 1.555 2.619 2.382.267.242.535.487.804.735a55.548 55.548 0 013.33 3.29 30.07 30.07 0 012.11 2.552c.275.377.534.755.779 1.137a120.884 120.884 0 012.548 4.195c.541.924 1.076 1.883 1.632 2.804 1.278 2.117 2.762 4.397 4.53 6.432.181.208.364.412.55.612 1.663 1.784 3.388 3.14 5.271 4.139.56.296 1.139.561 1.738.796 1.597.623 3.338.994 5.179 1.124 1.62.114 3.326.05 5.084-.213a28.994 28.994 0 004.951-1.202c2.987-.996 6.056-2.393 9.142-4.164a65.587 65.587 0 003.705-2.295 69.432 69.432 0 004.624-3.364 79.738 79.738 0 007.492-6.766 67.277 67.277 0 008.177-10.198c2.418-3.709 4.434-7.599 5.953-11.486 1.487-3.793 2.507-7.631 3.034-11.419a49.032 49.032 0 00.278-2.441c.036-.407.067-.818.092-1.222.053-.852.078-1.689.074-2.51a32.093 32.093 0 00-.284-4.208c-.319-2.325-.911-4.491-1.763-6.447a20.606 20.606 0 00-3.597-5.587 23.162 23.162 0 00-5.137-4.263 25.473 25.473 0 00-4.458-2.157 27.674 27.674 0 00-1.647-.555 29.296 29.296 0 00-2.91-.72 31.128 31.128 0 00-3.632-.498 28.44 28.44 0 00-3.925-.038 29.37 29.37 0 00-4.806.673 32.503 32.503 0 00-7.215 2.581c-.337.166-.673.339-1.008.517-2.46 1.315-4.914 2.988-7.32 4.996zm-.717-.807c2.484-2.078 5.014-3.807 7.556-5.167.14-.075.281-.149.422-.222 2.631-1.365 5.379-2.378 8.138-2.998a30.341 30.341 0 019.1-.638 31.212 31.212 0 017.32 1.483 27.177 27.177 0 015.802 2.72 24.495 24.495 0 015.314 4.474 21.713 21.713 0 013.728 5.814c.882 2.031 1.497 4.274 1.827 6.677a33.36 33.36 0 01.295 4.719c-.004.72-.029 1.453-.075 2.196a44.906 44.906 0 01-.212 2.46c-.045.406-.097.819-.153 1.23-.537 3.894-1.582 7.84-3.111 11.741-1.516 3.882-3.519 7.77-5.916 11.478l-.168.258a68.332 68.332 0 01-8.269 10.303 80.88 80.88 0 01-7.607 6.871 71.004 71.004 0 01-4.596 3.35 66.102 66.102 0 01-3.886 2.412c-3.151 1.808-6.287 3.234-9.344 4.251a29.977 29.977 0 01-5.105 1.235c-.957.143-1.901.231-2.825.264a22.25 22.25 0 01-2.417-.044 20.566 20.566 0 01-1.401-.14 17.807 17.807 0 01-6.362-2.093c-1.805-1.006-3.467-2.329-5.069-4.028a27.527 27.527 0 01-.972-1.093c-1.669-1.981-3.083-4.149-4.313-6.166-.578-.948-1.142-1.93-1.712-2.88-.52-.87-1.058-1.753-1.606-2.637a87.217 87.217 0 00-1.013-1.607c-.81-1.244-1.779-2.46-2.917-3.715a65.742 65.742 0 00-2.7-2.77l-.656-.642c-1.188-1.154-2.349-2.254-3.397-3.305a55.846 55.846 0 01-2.203-2.322 43.301 43.301 0 01-.46-.527 22.13 22.13 0 01-2.199-3.02 18.46 18.46 0 01-1.552-3.21c-.821-2.22-1.088-4.659-.516-7.258.068-.307.14-.616.223-.925a18.16 18.16 0 011.951-4.565 18.743 18.743 0 012.357-3.114 18.455 18.455 0 015.521-4.068 18.718 18.718 0 012.316-.919c1.159-.373 2.371-.65 3.781-.869a83.09 83.09 0 012.738-.372l.809-.097c.011-.008.186-.016.197-.024a44.947 44.947 0 003.675-.549 24.95 24.95 0 004.237-1.227 27.173 27.173 0 002.929-1.34 36.436 36.436 0 003.732-2.303c.373-.234.983-.729 1.371-.996.434-.324.877-.666 1.332-1.026 1.52-1.206 3.025-2.498 4.614-3.845l1.447-1.215z"></path><path class="st0" d="M99.941 59.109c-.431.363-.857.726-1.279 1.088-1.414 1.21-2.755 2.377-4.104 3.467-.278.225-.552.443-.821.653-.317.224-.879.702-1.183.9-1.287.94-2.514 1.745-3.749 2.431a25.69 25.69 0 01-2.083 1.036 23.43 23.43 0 01-4.35 1.449 40.057 40.057 0 01-3.272.595c-.012.009-.162.018-.174.027l-.313.048c-.913.137-1.848.275-2.773.439a22.24 22.24 0 00-3.233.801c-.799.267-1.58.593-2.335.979a17.091 17.091 0 00-4.403 3.25 17.456 17.456 0 00-2.545 3.3 15.577 15.577 0 00-1.391 3.078 16.937 16.937 0 00-.398 1.506c-.435 1.903-.339 3.676.177 5.314.282.894.675 1.775 1.228 2.701.369.618.804 1.274 1.37 1.957.168.204.345.408.529.618a42.374 42.374 0 002.33 2.43c.71.687 1.48 1.394 2.273 2.134l.702.653a55.824 55.824 0 012.931 2.909 28.64 28.64 0 011.878 2.236c.246.329.479.659.7.992l.304.463a103.935 103.935 0 012.003 3.197c.489.807.971 1.643 1.471 2.447 1.183 1.901 2.539 3.92 4.122 5.718.163.185.329.367.497.546 1.512 1.601 3.06 2.809 4.738 3.692.502.263 1.021.498 1.558.705 1.434.55 2.999.869 4.653.969 1.438.087 2.95.018 4.51-.228a25.995 25.995 0 004.386-1.095c2.641-.896 5.359-2.149 8.104-3.736a58.95 58.95 0 003.286-2.048 62.348 62.348 0 004.102-2.995 70.852 70.852 0 006.647-6.024 60.286 60.286 0 007.332-9.199c2.161-3.338 3.967-6.841 5.324-10.325 1.307-3.342 2.207-6.714 2.678-10.036a42.074 42.074 0 00.335-3.221 33.75 33.75 0 00.073-2.205c0-1.284-.079-2.521-.234-3.699-.27-2.044-.778-3.95-1.512-5.674a18.335 18.335 0 00-3.109-4.938 19.763 19.763 0 00-4.495-3.793 21.476 21.476 0 00-3.93-1.895 23.492 23.492 0 00-1.452-.479 25.08 25.08 0 00-2.569-.611 26.893 26.893 0 00-3.198-.402 25.124 25.124 0 00-3.457.008c-1.415.096-2.829.31-4.224.639a29.012 29.012 0 00-6.339 2.33c-.295.148-.589.302-.882.46-2.158 1.17-4.312 2.655-6.434 4.438zm-.72-.804c2.201-1.854 4.433-3.396 6.673-4.615.124-.067.248-.134.372-.199a30.282 30.282 0 017.19-2.716 27.165 27.165 0 013.293-.562 26.418 26.418 0 014.761-.089 26.89 26.89 0 016.494 1.263 23.187 23.187 0 015.136 2.411 21.133 21.133 0 014.669 4.008 19.359 19.359 0 013.233 5.157c.763 1.797 1.292 3.778 1.574 5.898.175 1.323.256 2.716.243 4.163-.006.635-.03 1.281-.072 1.936a44.707 44.707 0 01-.192 2.161c-.041.357-.087.72-.138 1.082-.481 3.429-1.407 6.912-2.756 10.365-1.359 3.49-3.159 7-5.307 10.347l-.15.233a61.383 61.383 0 01-7.42 9.299 71.757 71.757 0 01-6.762 6.131 63.176 63.176 0 01-4.086 2.989 59.878 59.878 0 01-3.455 2.157c-2.809 1.624-5.595 2.906-8.306 3.823a26.9 26.9 0 01-4.535 1.128 22.52 22.52 0 01-2.514.255c-.73.031-1.447.024-2.146-.021a17.87 17.87 0 01-1.262-.113 16.16 16.16 0 01-3.638-.877 15.854 15.854 0 01-2.106-.961c-1.62-.893-3.124-2.071-4.583-3.601a24.275 24.275 0 01-.882-.977c-1.505-1.757-2.803-3.686-3.947-5.503-.524-.832-1.036-1.694-1.557-2.528-.475-.763-.967-1.537-1.469-2.313-.304-.471-.607-.943-.919-1.406-.739-1.094-1.612-2.167-2.623-3.277a72.922 72.922 0 00-2.391-2.471l-.579-.58c-1.045-1.042-2.053-2.04-2.952-2.998a41.988 41.988 0 01-1.871-2.115c-.131-.16-.258-.32-.385-.479a17.372 17.372 0 01-1.782-2.734 15.45 15.45 0 01-1.158-2.857c-.574-1.938-.693-4.045-.06-6.289a16.697 16.697 0 012.861-5.737c.442-.577.92-1.127 1.429-1.643a17.535 17.535 0 014.934-3.54c.668-.32 1.354-.595 2.051-.829a23.19 23.19 0 013.331-.83 89.031 89.031 0 012.405-.393l.71-.107c.012-.009.161-.018.173-.026a38.907 38.907 0 003.219-.582 22.58 22.58 0 003.706-1.185c.863-.359 1.717-.77 2.561-1.24a34.622 34.622 0 003.271-2.089c.311-.195.88-.673 1.204-.895.38-.29.768-.595 1.167-.915 1.336-1.077 2.665-2.231 4.068-3.431.419-.358.845-.721 1.275-1.083z"></path><path class="st0" d="M100.616 62.771c-.375.319-.746.638-1.113.956-1.228 1.063-2.394 2.092-3.557 3.053-.24.199-.477.391-.709.578-.253.179-.777.64-1.02.798a34.365 34.365 0 01-3.223 2.18c-.59.347-1.185.662-1.785.95a21.214 21.214 0 01-3.732 1.391c-.909.247-1.82.446-2.814.629-.013.01-.136.019-.15.029l-.27.052c-.785.149-1.589.298-2.386.464a21.448 21.448 0 00-2.794.763c-.691.243-1.37.531-2.031.869a16.52 16.52 0 00-3.886 2.766 16.644 16.644 0 00-2.33 2.758 14.396 14.396 0 00-1.357 2.561c-.171.419-.304.842-.436 1.257-.51 1.608-.553 3.104-.245 4.5.171.776.44 1.54.852 2.348.279.548.614 1.13 1.071 1.734.136.181.28.362.43.547a31.112 31.112 0 001.933 2.162c.596.609 1.249 1.234 1.928 1.885l.6.572a60.458 60.458 0 012.533 2.527 28.16 28.16 0 011.646 1.92 22.34 22.34 0 01.893 1.243 95.92 95.92 0 011.795 2.73c.438.689.866 1.403 1.309 2.089 1.089 1.684 2.315 3.444 3.714 5.005.146.163.294.323.444.479 1.358 1.421 2.732 2.477 4.205 3.245.444.23.903.435 1.378.613 1.272.477 2.659.744 4.127.815a18.376 18.376 0 003.937-.242 23.201 23.201 0 003.82-.988c2.294-.796 4.663-1.904 7.065-3.308a53.985 53.985 0 006.447-4.426 61.714 61.714 0 005.801-5.283 53.301 53.301 0 006.487-8.2c1.905-2.968 3.5-6.083 4.696-9.165 1.127-2.891 1.907-5.798 2.322-8.653a39.407 39.407 0 00.224-1.854c.029-.309.055-.62.076-.927.045-.645.068-1.279.071-1.9a24.869 24.869 0 00-.183-3.19c-.221-1.763-.644-3.408-1.261-4.901a16.01 16.01 0 00-2.622-4.288 16.455 16.455 0 00-3.853-3.323 17.596 17.596 0 00-3.403-1.634c-.411-.147-.83-.282-1.257-.403a20.686 20.686 0 00-2.228-.501 22.516 22.516 0 00-5.751-.251 22.763 22.763 0 00-3.642.605 25.48 25.48 0 00-5.462 2.079c-.253.13-.505.264-.756.404-1.856 1.027-3.711 2.324-5.548 3.881zm-.724-.801c1.918-1.63 3.851-2.986 5.79-4.063a26.789 26.789 0 016.564-2.61 23.812 23.812 0 012.862-.527 22.862 22.862 0 014.145-.135 22.696 22.696 0 015.668 1.042 19.17 19.17 0 014.469 2.102 17.8 17.8 0 014.023 3.543 17.089 17.089 0 012.739 4.5c.644 1.564 1.088 3.282 1.32 5.119.145 1.148.209 2.354.192 3.607-.007.55-.03 1.109-.069 1.676a37.579 37.579 0 01-.294 2.797c-.425 2.964-1.231 5.984-2.402 8.988-1.202 3.098-2.798 6.231-4.699 9.217l-.133.208a54.322 54.322 0 01-6.571 8.294 62.652 62.652 0 01-5.918 5.391 55.742 55.742 0 01-3.576 2.629 53.376 53.376 0 01-3.025 1.902c-2.467 1.44-4.903 2.578-7.267 3.395a24.059 24.059 0 01-3.965 1.021c-.746.125-1.482.207-2.202.246-.638.034-1.264.035-1.876.003-.38-.016-.754-.044-1.124-.086a13.85 13.85 0 01-5.125-1.583c-1.435-.779-2.778-1.815-4.097-3.174a21.851 21.851 0 01-.793-.861c-1.341-1.533-2.522-3.224-3.581-4.839-.469-.716-.93-1.458-1.403-2.176-.43-.656-.877-1.32-1.331-1.988-.273-.402-.545-.807-.826-1.204-.667-.944-1.446-1.874-2.329-2.839a98.175 98.175 0 00-2.082-2.173l-.502-.518c-.902-.931-1.756-1.826-2.508-2.691a29.944 29.944 0 01-1.539-1.908c-.106-.144-.208-.288-.31-.431a13.034 13.034 0 01-1.365-2.449c-.37-.866-.6-1.683-.764-2.503-.329-1.652-.299-3.431.395-5.32a15.698 15.698 0 012.077-3.922 16.654 16.654 0 011.97-2.235 16.963 16.963 0 016.133-3.752 22.594 22.594 0 012.881-.792c.694-.146 1.389-.284 2.072-.414l.61-.116c.013-.009.135-.019.148-.029a33.223 33.223 0 002.763-.615 20.459 20.459 0 003.175-1.143c.739-.336 1.47-.714 2.194-1.14a32.815 32.815 0 002.809-1.875c.249-.156.778-.616 1.037-.795.326-.256.66-.524 1.002-.805 1.151-.949 2.305-1.965 3.522-3.016.372-.316.742-.635 1.116-.953z"></path><path class="st0" d="M101.291 66.433c-.319.274-.635.55-.948.825-1.042.915-2.032 1.807-3.01 2.639-.202.172-.401.34-.597.502-.19.134-.674.577-.857.696a33.408 33.408 0 01-2.696 1.929c-.491.312-.988.597-1.488.864-1.013.542-2.044.98-3.115 1.333-.762.251-1.526.464-2.355.663-.014.01-.111.021-.126.031l-.226.056c-.657.16-1.329.32-2 .489-.852.215-1.613.447-2.354.725a16.74 16.74 0 00-1.726.758 16.604 16.604 0 00-3.369 2.282 16.461 16.461 0 00-2.115 2.216 13.76 13.76 0 00-1.324 2.043c-.177.335-.324.676-.473 1.009-.589 1.314-.771 2.535-.667 3.686.06.66.205 1.307.475 1.994.188.478.424.985.772 1.512.103.158.214.316.33.476.46.64.975 1.277 1.536 1.895a46.168 46.168 0 001.583 1.636l.499.491a83.897 83.897 0 012.135 2.145 28.5 28.5 0 011.414 1.605c.188.234.369.468.543.703l.239.327a80.99 80.99 0 011.587 2.262c.387.571.761 1.163 1.148 1.732.997 1.467 2.092 2.967 3.306 4.291.129.141.259.278.39.413 1.207 1.237 2.404 2.146 3.672 2.798.386.197.785.371 1.198.522 1.11.404 2.32.619 3.601.66a15.95 15.95 0 003.363-.257 20.15 20.15 0 003.254-.882c1.948-.696 3.967-1.66 6.027-2.88a47.518 47.518 0 005.506-3.81 52.436 52.436 0 004.955-4.542 46.327 46.327 0 005.642-7.201c1.648-2.597 3.033-5.325 4.068-8.005.947-2.44 1.607-4.882 1.966-7.271a28.023 28.023 0 00.196-1.56c.026-.26.049-.521.068-.779.04-.541.064-1.074.069-1.596.01-.929-.034-1.825-.133-2.681-.172-1.482-.511-2.867-1.01-4.129a13.713 13.713 0 00-2.135-3.638 13.19 13.19 0 00-3.212-2.853 13.917 13.917 0 00-2.875-1.373 15.773 15.773 0 00-1.062-.327 16.776 16.776 0 00-1.887-.392 18.408 18.408 0 00-2.328-.21 18.231 18.231 0 00-2.342.083l-.178.018a19.655 19.655 0 00-3.06.571 22.005 22.005 0 00-4.586 1.828c-.21.112-.42.227-.63.347-1.551.891-3.106 2-4.658 3.331zm-.728-.797c1.634-1.407 3.269-2.575 4.906-3.512a23.264 23.264 0 015.567-2.305 20.487 20.487 0 012.431-.492 19.534 19.534 0 013.53-.182 18.48 18.48 0 014.842.822 15.41 15.41 0 013.803 1.792 14.562 14.562 0 013.378 3.077 14.77 14.77 0 012.244 3.843 17.33 17.33 0 011.066 4.34c.114.972.161 1.992.14 3.051-.009.465-.031.937-.066 1.416a34.74 34.74 0 01-.152 1.564c-.032.259-.067.523-.106.785-.369 2.499-1.056 5.055-2.047 7.612-1.044 2.707-2.438 5.462-4.09 8.086l-.116.182a47.434 47.434 0 01-5.722 7.29 53.545 53.545 0 01-5.073 4.652 48.322 48.322 0 01-5.661 3.917c-2.125 1.257-4.211 2.249-6.229 2.966a21.064 21.064 0 01-3.394.913 17.4 17.4 0 01-1.89.238 15.45 15.45 0 01-1.605.027 13.817 13.817 0 01-.985-.059c-.999-.095-1.954-.3-2.854-.611a11.795 11.795 0 01-1.652-.718c-1.25-.666-2.431-1.56-3.61-2.747a20.016 20.016 0 01-.703-.744c-1.177-1.309-2.241-2.762-3.214-4.175-.414-.601-.824-1.222-1.248-1.824-.385-.549-.786-1.104-1.193-1.664-.243-.334-.484-.671-.732-1.002-.596-.794-1.28-1.581-2.035-2.4-.558-.602-1.152-1.218-1.773-1.875a63.546 63.546 0 01-.425-.457 37.684 37.684 0 01-2.063-2.384 20.61 20.61 0 01-1.207-1.701 17.929 17.929 0 01-.234-.383 9.293 9.293 0 01-.948-2.163 9.526 9.526 0 01-.37-2.15c-.091-1.361.094-2.817.851-4.351.088-.178.176-.358.271-.536a15.029 15.029 0 012.376-3.29 17.008 17.008 0 016.438-4.242 22.73 22.73 0 012.431-.753 176.7 176.7 0 011.739-.435l.511-.125c.014-.01.11-.021.124-.031a27.58 27.58 0 002.307-.648c.905-.299 1.783-.66 2.644-1.101a22.365 22.365 0 001.827-1.04 32.065 32.065 0 002.348-1.66c.186-.117.676-.56.87-.694.272-.221.552-.453.838-.694.967-.82 1.945-1.699 2.975-2.602.307-.275.622-.55.94-.823z"></path><path class="st0" d="M101.966 70.096c-.263.23-.524.462-.782.694-.856.767-1.67 1.522-2.463 2.225-.164.146-.326.288-.484.426-.127.089-.572.515-.694.594a34.556 34.556 0 01-2.169 1.678 23.08 23.08 0 01-1.19.779 17.97 17.97 0 01-2.497 1.275c-.615.256-1.232.483-1.896.696-.015.011-.086.022-.101.034l-.183.061c-.529.172-1.07.342-1.614.514-.678.214-1.301.436-1.914.687a18.243 18.243 0 00-4.272 2.446 17.977 17.977 0 00-1.899 1.675c-.464.475-.899.991-1.291 1.526-.183.25-.345.51-.511.761-.672 1.018-.996 1.969-1.088 2.873a4.858 4.858 0 00.099 1.64c.096.41.234.84.473 1.289a13.512 13.512 0 001.369 2.033c.368.453.786.913 1.238 1.387.13.136.263.273.397.409.607.617 1.189 1.198 1.736 1.763.42.437.815.864 1.182 1.289.16.186.314.372.464.559l.206.259c.478.601.94 1.202 1.379 1.795.336.453.658.922.987 1.374.906 1.248 1.869 2.49 2.897 3.577.112.118.224.233.337.346 1.056 1.054 2.076 1.815 3.139 2.351.328.165.667.308 1.017.431.947.331 1.98.495 3.076.505.889.009 1.823-.076 2.79-.271a17.434 17.434 0 002.688-.775c1.602-.596 3.27-1.415 4.989-2.452a41.456 41.456 0 002.03-1.306 39.337 39.337 0 002.534-1.889 43.273 43.273 0 004.109-3.8 39.307 39.307 0 004.797-6.202c1.391-2.227 2.566-4.567 3.44-6.845.767-1.989 1.307-3.965 1.611-5.888a24.88 24.88 0 00.299-3.19 17.69 17.69 0 00-.083-2.172 13.684 13.684 0 00-.759-3.356 11.41 11.41 0 00-1.648-2.988 10.063 10.063 0 00-2.57-2.384 10.288 10.288 0 00-2.347-1.111 11.9 11.9 0 00-.867-.251 14.391 14.391 0 00-3.44-.397c-.628.001-1.265.044-1.907.128l-.145.019c-.828.112-1.659.293-2.479.538a18.49 18.49 0 00-3.709 1.577c-.168.094-.336.19-.504.29-1.255.746-2.51 1.669-3.777 2.774zm-.732-.795c1.351-1.183 2.688-2.165 4.023-2.96l.222-.13a19.716 19.716 0 014.347-1.87 17.425 17.425 0 012-.458 16.069 16.069 0 012.914-.228 14.442 14.442 0 014.016.602c1.142.35 2.193.847 3.136 1.483a11.365 11.365 0 012.732 2.612 12.475 12.475 0 011.749 3.186c.406 1.097.679 2.29.812 3.561.083.797.113 1.631.089 2.495a23.026 23.026 0 01-.121 1.787 27.432 27.432 0 01-.164 1.272c-.313 2.035-.881 4.127-1.692 6.235-.887 2.315-2.077 4.693-3.482 6.956l-.098.157a40.453 40.453 0 01-4.873 6.285 44.296 44.296 0 01-4.229 3.912 40.88 40.88 0 01-2.557 1.909 42.31 42.31 0 01-2.164 1.393c-1.783 1.073-3.518 1.921-5.19 2.538-.96.356-1.905.625-2.824.806-.536.106-1.062.183-1.579.229-.453.04-.899.057-1.335.05a11.78 11.78 0 01-.846-.032 10.28 10.28 0 01-2.462-.478 9.77 9.77 0 01-1.426-.596c-1.066-.552-2.084-1.305-3.124-2.32-.206-.201-.411-.41-.614-.628-1.013-1.086-1.957-2.301-2.848-3.511-.358-.486-.718-.986-1.094-1.472-.34-.442-.694-.887-1.055-1.34-.212-.266-.423-.536-.639-.8a40.662 40.662 0 00-1.741-1.962c-.473-.505-.965-1.024-1.464-1.577-.118-.13-.233-.263-.348-.395a20.939 20.939 0 01-1.619-2.077 13.381 13.381 0 01-.875-1.493 11.212 11.212 0 01-.159-.335 6.331 6.331 0 01-.531-1.877c-.08-.621-.051-1.203.024-1.796a7.386 7.386 0 011.306-3.382c.094-.135.188-.272.287-.406a15.514 15.514 0 012.254-2.464 18.686 18.686 0 014.195-2.797c.417-.203.836-.388 1.256-.559a26.638 26.638 0 011.981-.715c.475-.152.944-.306 1.406-.456l.412-.135c.015-.011.085-.022.1-.033a22.72 22.72 0 001.85-.681 16.745 16.745 0 002.113-1.059c.491-.289.978-.602 1.459-.941a33.38 33.38 0 001.887-1.446c.124-.078.573-.504.703-.593.219-.187.443-.382.673-.584.783-.692 1.585-1.432 2.429-2.188.256-.234.516-.464.778-.694z"></path><path class="st0" d="M102.641 73.758c-.208.186-.413.374-.616.563-.67.62-1.309 1.237-1.917 1.811l-.372.35c-.063.045-.47.452-.531.492-.549.498-1.092.977-1.643 1.426-.295.24-.593.471-.893.693-.613.457-1.237.858-1.88 1.216-.467.261-.938.502-1.437.73-.017.012-.061.024-.077.036l-.14.065c-.401.183-.811.363-1.228.54-.504.213-.988.425-1.475.649a29.374 29.374 0 00-4.638 2.632c-.161.112-.328.228-.498.352-.423.309-.849.648-1.257 1.008-.189.166-.368.342-.548.512-.76.718-1.235 1.4-1.51 2.059-.179.43-.276.845-.278 1.286-.001.342.044.696.174 1.067a7.74 7.74 0 00.872 1.695c.255.374.556.752.893 1.139.096.11.195.219.295.328.445.483.898.939 1.338 1.382.328.331.647.655.95.973.131.138.259.276.385.414l.173.191c.406.447.799.889 1.171 1.328.284.335.556.68.825 1.017.82 1.027 1.647 2.012 2.489 2.864.095.096.189.189.283.279.907.869 1.748 1.483 2.606 1.904.269.132.549.245.837.34.785.258 1.64.372 2.55.351a10.916 10.916 0 002.216-.286c.686-.157 1.395-.38 2.122-.669 1.256-.496 2.574-1.171 3.951-2.023.528-.326 1.066-.68 1.612-1.059a31.56 31.56 0 002.011-1.52 34.101 34.101 0 003.263-3.059 32.312 32.312 0 003.952-5.203c1.134-1.857 2.1-3.809 2.812-5.684a23.997 23.997 0 001.255-4.505 17.516 17.516 0 00.142-.973 16.938 16.938 0 00.119-1.47c.021-.574.01-1.129-.033-1.663a11.035 11.035 0 00-.508-2.583 9.135 9.135 0 00-1.161-2.338 7.049 7.049 0 00-1.928-1.914 7.007 7.007 0 00-1.82-.85 8.256 8.256 0 00-.672-.175 8.964 8.964 0 00-1.205-.173 10.712 10.712 0 00-1.459-.019c-.483.025-.975.083-1.471.173l-.111.02c-.632.118-1.269.287-1.897.504a14.992 14.992 0 00-3.21 1.56 22.398 22.398 0 00-2.883 2.217zm-.735-.791c1.068-.959 2.106-1.755 3.14-2.409l.172-.107a16.214 16.214 0 013.399-1.588 14.42 14.42 0 011.569-.423 12.719 12.719 0 012.299-.275 10.552 10.552 0 013.19.381 8.241 8.241 0 012.47 1.174 8.299 8.299 0 012.087 2.146c.525.771.95 1.614 1.254 2.529.287.863.475 1.794.559 2.782.053.622.065 1.269.037 1.938a17.385 17.385 0 01-.11 1.377 20.83 20.83 0 01-.136.975c-.257 1.57-.705 3.199-1.337 4.858a35.843 35.843 0 01-2.874 5.826l-.081.132a33.484 33.484 0 01-4.024 5.281 35.394 35.394 0 01-3.384 3.172 32.732 32.732 0 01-2.048 1.548c-.587.409-1.165.788-1.734 1.138-1.441.889-2.826 1.593-4.151 2.11a15.45 15.45 0 01-2.254.699c-.43.097-.853.171-1.267.22-.361.043-.716.068-1.064.074a9.776 9.776 0 01-.707-.005 8.377 8.377 0 01-2.071-.346 7.827 7.827 0 01-1.199-.474c-.881-.439-1.735-1.052-2.638-1.892a19.186 19.186 0 01-.525-.512c-.848-.863-1.67-1.843-2.482-2.848a33.6 33.6 0 00-.939-1.121c-.294-.335-.603-.671-.917-1.015-.181-.199-.362-.4-.545-.599-.456-.494-.947-.995-1.447-1.524-.387-.408-.778-.83-1.156-1.278-.093-.11-.183-.222-.271-.333a11.256 11.256 0 01-1.174-1.769 8.127 8.127 0 01-.543-1.286 6.25 6.25 0 01-.084-.288 4.176 4.176 0 01-.114-1.591c.057-.498.208-.965.418-1.443.341-.776.873-1.593 1.762-2.413a18.806 18.806 0 011.932-1.571c.171-.121.34-.235.502-.345a30.163 30.163 0 013.471-2.002c.333-.164.664-.319.99-.469.507-.233 1.01-.454 1.531-.676a44.815 44.815 0 001.385-.621c.016-.012.06-.024.076-.036.485-.223.941-.458 1.394-.714a15.914 15.914 0 001.582-1.017c.367-.266.732-.546 1.092-.841.477-.39.949-.804 1.426-1.232.062-.039.471-.447.536-.492l.509-.473c.598-.563 1.225-1.166 1.883-1.774.2-.186.404-.373.611-.558z"></path><path class="st0" d="M110.976 73.718c-.669 0-1.39.106-2.138.318a11.4 11.4 0 00-3.271 1.546 19.035 19.035 0 00-2.251 1.84 49.626 49.626 0 00-2.08 2.103l-.368.39c-.555.589-1.129 1.199-1.712 1.782a18.488 18.488 0 01-2.391 2.03 20.037 20.037 0 01-2.689 1.601c-.815.408-1.716.804-2.834 1.246-.141.056-.292.114-.452.176-.556.215-1.186.458-1.81.755-.85.404-1.482.811-1.931 1.245-.573.553-.827 1.134-.779 1.776.058.758.359 1.493.923 2.247.515.687 1.194 1.321 1.851 1.904l.446.392c.589.516 1.146 1.003 1.627 1.52.741.797 1.426 1.533 2.081 2.15.853.803 1.585 1.334 2.303 1.669.792.37 1.695.52 2.681.445 2.044-.155 4.433-1.224 7.304-3.269a24.629 24.629 0 003.906-3.469 25.455 25.455 0 003.107-4.204 29.164 29.164 0 002.184-4.524c.648-1.732 1.026-3.354 1.124-4.82.121-1.804-.187-3.37-.913-4.653-.598-1.057-1.466-1.741-2.579-2.032a5.199 5.199 0 00-1.339-.164zm-13.28 28.233a6.204 6.204 0 01-2.651-.565c-.826-.386-1.648-.977-2.587-1.861-.682-.642-1.378-1.391-2.116-2.184-.459-.494-.995-.963-1.563-1.46a53.44 53.44 0 01-.451-.397c-.7-.621-1.427-1.3-1.999-2.065-.691-.923-1.062-1.843-1.136-2.813-.073-.969.298-1.855 1.106-2.634.534-.516 1.26-.988 2.218-1.444.66-.314 1.31-.565 1.884-.787l.444-.173a34.16 34.16 0 002.749-1.207 18.896 18.896 0 002.546-1.516 17.46 17.46 0 002.253-1.913 84.4 84.4 0 001.689-1.759l.369-.391a50.6 50.6 0 012.127-2.15 20.223 20.223 0 012.378-1.941 12.54 12.54 0 013.589-1.695c1.467-.415 2.866-.47 4.046-.161 1.406.368 2.497 1.225 3.244 2.545.832 1.47 1.185 3.238 1.05 5.257-.105 1.571-.505 3.296-1.19 5.126a30.364 30.364 0 01-2.265 4.695 26.458 26.458 0 01-3.239 4.383 25.798 25.798 0 01-4.078 3.62c-3.036 2.163-5.604 3.297-7.85 3.467-.191.015-.38.023-.567.023z"></path></svg> 