<?xml version="1.0" encoding="UTF-8"?> <!-- Generator: Adobe Illustrator 24.3.0, SVG Export Plug-In . SVG Version: 6.00 Build 0) --> <svg xmlns="http://www.w3.org/2000/svg" xmlns:xlink="http://www.w3.org/1999/xlink" version="1.1" id="Layer_1" x="0px" y="0px" viewBox="0 0 100 19.51" style="enable-background:new 0 0 100 19.51;" xml:space="preserve"> <style type="text/css"> .st0{fill:#FFFFFF;} </style> <path class="st0" d="M31.752,15.259c0.124,0,0.224-0.05,0.323-0.124l0.274,0.174l-0.025,3.232l-0.174,0.348 c-0.795,0.423-1.69,0.622-2.561,0.622c-1.048,0-1.963-0.398-2.458-1.246c-0.468,0.325-0.984,0.594-1.544,0.799 c-0.796,0.298-1.666,0.447-2.61,0.447c-3.058,0-5.295-2.337-5.295-5.444c0-2.362,0.994-4.474,2.61-5.867 c1.218-1.069,2.759-1.715,4.475-1.715c1.202,0,2.271,0.393,3.134,1.04L28.72,2.83l4.375-0.547l0.348,0.224L31.33,14.463 C31.23,14.986,31.38,15.259,31.752,15.259L31.752,15.259z M27.054,12.549c0-1.169-0.795-1.964-1.864-1.964 c-0.646,0-1.218,0.273-1.665,0.721c-0.497,0.497-0.795,1.268-0.795,2.138c0,1.168,0.795,1.964,1.864,1.964 c0.572,0,1.069-0.199,1.492-0.547C26.681,14.339,27.054,13.519,27.054,12.549z"></path> <path class="st0" d="M33.122,14.016c0-2.908,1.492-5.369,3.977-6.637c1.168-0.597,2.561-0.895,4.077-0.895 c3.779,0,6.289,2.287,6.289,5.494c0,2.909-1.492,5.37-3.977,6.638c-1.168,0.596-2.56,0.895-4.077,0.895 C35.633,19.51,33.122,17.223,33.122,14.016z M41.475,14.861c0.596-0.522,0.969-1.342,0.969-2.312c0-1.168-0.795-1.964-1.864-1.964 c-0.646,0-1.218,0.274-1.666,0.721c-0.497,0.497-0.795,1.268-0.795,2.138c0,1.169,0.795,1.964,1.864,1.964 C40.555,15.408,41.052,15.209,41.475,14.861z"></path> <path class="st0" d="M57.411,6.484c2.734,0,4.624,1.641,4.624,4.325c0,0.423-0.022,0.795-0.246,2.063l-1.121,6.339h-4.872 l1.114-6.339c0.105-0.596,0.129-0.87,0.129-1.044c0-0.82-0.547-1.243-1.317-1.243c-0.932,0-1.519,0.597-1.74,1.722l-1.218,6.904 H47.89l1.367-7.706c0.099-0.522-0.075-0.771-0.398-0.771c-0.149,0-0.249,0.05-0.348,0.124l-0.274-0.174l0.05-3.232l0.199-0.348 c0.721-0.398,1.69-0.622,2.411-0.622c0.96,0,2.02,0.386,2.598,1.194C54.618,6.943,55.96,6.484,57.411,6.484L57.411,6.484z"></path> <path class="st0" d="M75.684,15.309l-0.025,3.231l-0.174,0.348c-0.795,0.423-1.69,0.622-2.585,0.622 c-1.034,0-1.938-0.387-2.438-1.212c-1.098,0.743-2.472,1.212-3.975,1.212c-2.411,0-4.624-1.218-4.624-3.679 c0-2.734,2.734-4.301,6.19-4.301c0.732,0,1.457,0.069,2.334,0.347l0.077-0.422c0.05-0.249,0.05-0.646-0.05-0.845 c-0.249-0.597-1.044-0.82-1.74-0.82c-0.994,0-2.063,0.398-2.859,1.044h-0.348l-1.665-2.088l0.05-0.348 c1.243-1.069,3.082-1.914,5.941-1.914c2.386,0,5.543,0.969,5.543,3.58c0,0.472-0.075,1.119-0.224,1.889l-0.448,2.511 c-0.099,0.522,0.05,0.796,0.423,0.796c0.1,0,0.224-0.05,0.323-0.124L75.684,15.309z M69.818,15.185l0.133-0.764 c-0.292-0.134-0.819-0.305-1.425-0.305c-1.193,0-1.84,0.671-1.84,1.442c0,0.721,0.597,1.094,1.243,1.094 C68.823,16.651,69.668,15.98,69.818,15.185z"></path> <path class="st0" d="M77.75,14.364l0.719-4.102h-2.135l0.622-3.48h2.125l0.609-3.48l4.574-0.547l0.323,0.224L83.92,6.782h3.45 l-0.621,3.48h-3.438l-0.614,3.505c-0.199,1.144,0.273,1.641,0.895,1.641c0.348,0,0.771-0.149,1.144-0.398l0.273,0.174l0.771,2.908 l-0.149,0.348c-1.019,0.696-2.436,1.069-3.58,1.069C79.415,19.51,77.104,17.968,77.75,14.364z"></path> <path class="st0" d="M99.528,14.14h-8.511c0.051,1.28,0.925,1.939,2.395,1.939c1.069,0,1.964-0.323,2.859-1.069h0.348l1.864,2.088 l-0.075,0.348c-1.293,1.218-3.381,2.063-5.692,2.063c-3.356,0-6.339-1.765-6.339-5.618c0-2.56,1.318-4.947,3.555-6.289 c1.168-0.696,2.585-1.119,4.151-1.119c3.53,0,5.916,2.138,5.916,5.369C100,12.848,99.776,13.668,99.528,14.14z M92.12,10.288 c-0.489,0.414-0.75,0.956-0.892,1.615h4.235c0.181-1.301-0.631-2.163-1.826-2.163C93.04,9.74,92.518,9.939,92.12,10.288 L92.12,10.288z"></path> <g> <path class="st0" d="M14.273,19.441L14.273,19.441c-0.338,0.113-0.708,0.087-1.027-0.073l-9.826-4.91 c-1.476-0.737-2.577-2.006-3.099-3.572c-0.522-1.565-0.404-3.241,0.334-4.717c1.519-3.04,5.221-4.282,8.264-2.778 c1.531-3.03,5.238-4.26,8.277-2.74l0,0l0.002,0.001c3.047,1.523,4.286,5.241,2.763,8.288l-4.91,9.826 C14.891,19.085,14.611,19.328,14.273,19.441z M5.078,5.623C4.231,5.906,3.491,6.511,3.061,7.372 c-0.417,0.834-0.484,1.78-0.189,2.663c0.295,0.884,0.916,1.6,1.75,2.017l8.623,4.309l4.309-8.623 c0.417-0.834,0.484-1.779,0.189-2.663c-0.295-0.884-0.916-1.6-1.749-2.016l-0.002-0.001c-1.716-0.858-3.81-0.163-4.673,1.548 c-0.002,0.005-0.004,0.009-0.007,0.014l-0.589,1.178c-0.332,0.664-1.14,0.934-1.804,0.602L7.741,5.81 C6.881,5.38,5.926,5.34,5.078,5.623z"></path> </g> </svg> 