<?xml version="1.0" encoding="UTF-8"?> <!-- Generator: Adobe Illustrator 24.3.0, SVG Export Plug-In . SVG Version: 6.00 Build 0) --> <svg xmlns="http://www.w3.org/2000/svg" xmlns:xlink="http://www.w3.org/1999/xlink" version="1.1" id="Layer_1" x="0px" y="0px" viewBox="0 0 100 19.5" style="enable-background:new 0 0 100 19.5;" xml:space="preserve"> <style type="text/css"> .st0{fill:#3D5467;} </style> <path class="st0" d="M31.8,15.3c0.1,0,0.2-0.1,0.3-0.1l0.3,0.2l0,3.2l-0.2,0.3c-0.8,0.4-1.7,0.6-2.6,0.6c-1,0-2-0.4-2.5-1.2 c-0.5,0.3-1,0.6-1.5,0.8c-0.8,0.3-1.7,0.4-2.6,0.4c-3.1,0-5.3-2.3-5.3-5.4c0-2.4,1-4.5,2.6-5.9c1.2-1.1,2.8-1.7,4.5-1.7 c1.2,0,2.3,0.4,3.1,1l0.8-4.7l4.4-0.5l0.3,0.2l-2.1,12C31.2,15,31.4,15.3,31.8,15.3L31.8,15.3z M27.1,12.5c0-1.2-0.8-2-1.9-2 c-0.6,0-1.2,0.3-1.7,0.7c-0.5,0.5-0.8,1.3-0.8,2.1c0,1.2,0.8,2,1.9,2c0.6,0,1.1-0.2,1.5-0.5C26.7,14.3,27.1,13.5,27.1,12.5z"></path> <path class="st0" d="M33.1,14c0-2.9,1.5-5.4,4-6.6c1.2-0.6,2.6-0.9,4.1-0.9c3.8,0,6.3,2.3,6.3,5.5c0,2.9-1.5,5.4-4,6.6 c-1.2,0.6-2.6,0.9-4.1,0.9C35.6,19.5,33.1,17.2,33.1,14z M41.5,14.9c0.6-0.5,1-1.3,1-2.3c0-1.2-0.8-2-1.9-2c-0.6,0-1.2,0.3-1.7,0.7 c-0.5,0.5-0.8,1.3-0.8,2.1c0,1.2,0.8,2,1.9,2C40.6,15.4,41.1,15.2,41.5,14.9z"></path> <path class="st0" d="M57.4,6.5c2.7,0,4.6,1.6,4.6,4.3c0,0.4,0,0.8-0.2,2.1l-1.1,6.3h-4.9l1.1-6.3c0.1-0.6,0.1-0.9,0.1-1 c0-0.8-0.5-1.2-1.3-1.2c-0.9,0-1.5,0.6-1.7,1.7l-1.2,6.9h-4.9l1.4-7.7c0.1-0.5-0.1-0.8-0.4-0.8c-0.1,0-0.2,0.1-0.3,0.1l-0.3-0.2 l0-3.2l0.2-0.3c0.7-0.4,1.7-0.6,2.4-0.6c1,0,2,0.4,2.6,1.2C54.6,6.9,56,6.5,57.4,6.5L57.4,6.5z"></path> <path class="st0" d="M75.7,15.3l0,3.2l-0.2,0.3c-0.8,0.4-1.7,0.6-2.6,0.6c-1,0-1.9-0.4-2.4-1.2c-1.1,0.7-2.5,1.2-4,1.2 c-2.4,0-4.6-1.2-4.6-3.7c0-2.7,2.7-4.3,6.2-4.3c0.7,0,1.5,0.1,2.3,0.3l0.1-0.4c0.1-0.2,0.1-0.6-0.1-0.8c-0.2-0.6-1-0.8-1.7-0.8 c-1,0-2.1,0.4-2.9,1h-0.3l-1.7-2.1l0-0.3c1.2-1.1,3.1-1.9,5.9-1.9c2.4,0,5.5,1,5.5,3.6c0,0.5-0.1,1.1-0.2,1.9l-0.4,2.5 c-0.1,0.5,0.1,0.8,0.4,0.8c0.1,0,0.2-0.1,0.3-0.1L75.7,15.3z M69.8,15.2l0.1-0.8c-0.3-0.1-0.8-0.3-1.4-0.3c-1.2,0-1.8,0.7-1.8,1.4 c0,0.7,0.6,1.1,1.2,1.1C68.8,16.7,69.7,16,69.8,15.2z"></path> <path class="st0" d="M77.8,14.4l0.7-4.1h-2.1L77,6.8h2.1l0.6-3.5l4.6-0.5L84.6,3l-0.7,3.8h3.4l-0.6,3.5h-3.4l-0.6,3.5 c-0.2,1.1,0.3,1.6,0.9,1.6c0.3,0,0.8-0.1,1.1-0.4l0.3,0.2l0.8,2.9l-0.1,0.3c-1,0.7-2.4,1.1-3.6,1.1C79.4,19.5,77.1,18,77.8,14.4z"></path> <path class="st0" d="M99.5,14.1H91c0.1,1.3,0.9,1.9,2.4,1.9c1.1,0,2-0.3,2.9-1.1h0.3l1.9,2.1l-0.1,0.3c-1.3,1.2-3.4,2.1-5.7,2.1 c-3.4,0-6.3-1.8-6.3-5.6c0-2.6,1.3-4.9,3.6-6.3c1.2-0.7,2.6-1.1,4.2-1.1c3.5,0,5.9,2.1,5.9,5.4C100,12.8,99.8,13.7,99.5,14.1z M92.1,10.3c-0.5,0.4-0.8,1-0.9,1.6h4.2c0.2-1.3-0.6-2.2-1.8-2.2C93,9.7,92.5,9.9,92.1,10.3L92.1,10.3z"></path> <g> <path class="st0" d="M14.3,19.4L14.3,19.4c-0.3,0.1-0.7,0.1-1-0.1l-9.8-4.9c-1.5-0.7-2.6-2-3.1-3.6c-0.5-1.6-0.4-3.2,0.3-4.7 c1.5-3,5.2-4.3,8.3-2.8c1.5-3,5.2-4.3,8.3-2.7l0,0l0,0c3,1.5,4.3,5.2,2.8,8.3l-4.9,9.8C14.9,19.1,14.6,19.3,14.3,19.4z M5.1,5.6 c-0.8,0.3-1.6,0.9-2,1.7C2.6,8.2,2.6,9.2,2.9,10c0.3,0.9,0.9,1.6,1.8,2l8.6,4.3l4.3-8.6C18,6.9,18,6,17.7,5.1s-0.9-1.6-1.7-2l0,0 c-1.7-0.9-3.8-0.2-4.7,1.5c0,0,0,0,0,0l-0.6,1.2c-0.3,0.7-1.1,0.9-1.8,0.6L7.7,5.8C6.9,5.4,5.9,5.3,5.1,5.6z"></path> </g> </svg> 